<svg xmlns="http://www.w3.org/2000/svg" width="100%" height="100%" viewBox="0 0 100 100">
<rect stroke="#BE2A2A" fill="#BE2A2A" x="1" y="35" width="20" height="20" transform="rotate(5,11,45)"></rect>
<rect stroke="#6B2933" fill="#6B2933" x="12" y="7" width="20" height="20" transform="rotate(-20,22,17)"></rect>
<rect stroke="#BE2A2A" fill="#BE2A2A" x="25" y="7" width="20" height="20" transform="rotate(-5,35,17)"></rect>
<rect stroke="#6B2933" fill="#6B2933" x="54" y="42" width="20" height="20" transform="rotate(5,64,52)"></rect>
<rect stroke="#6B2933" fill="#6B2933" x="43" y="43" width="20" height="20" transform="rotate(-20,53,53)"></rect>
<rect stroke="#BE2A2A" fill="#BE2A2A" x="55" y="58" width="20" height="20" transform="rotate(43,65,68)"></rect>
<rect stroke="#E52523" fill="#E52523" x="65" y="60" width="20" height="20" transform="rotate(20,75,70)"></rect>
<rect stroke="#E84139" fill="#E84139" x="12" y="20" width="20" height="20" transform="rotate(43,22,30)"></rect>
<rect stroke="#E84139" fill="#E84139" x="40" y="23" width="20" height="20" transform="rotate(-10,50,33)"></rect>
</svg>
