<svg xmlns="http://www.w3.org/2000/svg" width="100%" height="100%" viewBox="0 0 300 300">
<g transform="translate(0 0)"><g transform="rotate(0 5 5)"><rect stroke="black" fill="none" x="0" y="0" width="10" height="10" transform="rotate(0,5,5)"></rect></g></g>
<g transform="translate(0 0)"><g transform="rotate(0 15 5)"><rect stroke="black" fill="none" x="10" y="0" width="10" height="10" transform="rotate(0,15,5)"></rect></g></g>
<g transform="translate(0 0)"><g transform="rotate(0 25 5)"><rect stroke="black" fill="none" x="20" y="0" width="10" height="10" transform="rotate(0,25,5)"></rect></g></g>
<g transform="translate(0 0)"><g transform="rotate(0 35 5)"><rect stroke="black" fill="none" x="30" y="0" width="10" height="10" transform="rotate(0,35,5)"></rect></g></g>
<g transform="translate(0 0)"><g transform="rotate(0 45 5)"><rect stroke="black" fill="none" x="40" y="0" width="10" height="10" transform="rotate(0,45,5)"></rect></g></g>
<g transform="translate(0 0)"><g transform="rotate(0 55 5)"><rect stroke="black" fill="none" x="50" y="0" width="10" height="10" transform="rotate(0,55,5)"></rect></g></g>
<g transform="translate(0 0)"><g transform="rotate(0 65 5)"><rect stroke="black" fill="none" x="60" y="0" width="10" height="10" transform="rotate(0,65,5)"></rect></g></g>
<g transform="translate(0 0)"><g transform="rotate(0 75 5)"><rect stroke="black" fill="none" x="70" y="0" width="10" height="10" transform="rotate(0,75,5)"></rect></g></g>
<g transform="translate(0 0)"><g transform="rotate(0 85 5)"><rect stroke="black" fill="none" x="80" y="0" width="10" height="10" transform="rotate(0,85,5)"></rect></g></g>
<g transform="translate(0 0)"><g transform="rotate(0 95 5)"><rect stroke="black" fill="none" x="90" y="0" width="10" height="10" transform="rotate(0,95,5)"></rect></g></g>
<g transform="translate(0 0)"><g transform="rotate(0 105 5)"><rect stroke="black" fill="none" x="100" y="0" width="10" height="10" transform="rotate(0,105,5)"></rect></g></g>
<g transform="translate(0 0)"><g transform="rotate(0 115 5)"><rect stroke="black" fill="none" x="110" y="0" width="10" height="10" transform="rotate(0,115,5)"></rect></g></g>
<g transform="translate(0.17632053570623057 1.001000192286986)"><g transform="rotate(1.7643917112340552 5 15)"><rect stroke="black" fill="none" x="0" y="10" width="10" height="10" transform="rotate(0,5,15)"></rect></g></g>
<g transform="translate(0.35877813151208965 0.9849224036483708)"><g transform="rotate(0.2448272689347922 15 15)"><rect stroke="black" fill="none" x="10" y="10" width="10" height="10" transform="rotate(0,15,15)"></rect></g></g>
<g transform="translate(0.23638076761038745 -0.20354779293561287)"><g transform="rotate(1.476744888393513 25 15)"><rect stroke="black" fill="none" x="20" y="10" width="10" height="10" transform="rotate(0,25,15)"></rect></g></g>
<g transform="translate(0.3400830330023699 -0.19733959879183713)"><g transform="rotate(0.4898448262539588 35 15)"><rect stroke="black" fill="none" x="30" y="10" width="10" height="10" transform="rotate(0,35,15)"></rect></g></g>
<g transform="translate(0.14742518144196565 0.8628162641840817)"><g transform="rotate(0.4620243478206218 45 15)"><rect stroke="black" fill="none" x="40" y="10" width="10" height="10" transform="rotate(0,45,15)"></rect></g></g>
<g transform="translate(-0.2346912302691735 0.8097405004332354)"><g transform="rotate(0.6014452069645001 55 15)"><rect stroke="black" fill="none" x="50" y="10" width="10" height="10" transform="rotate(0,55,15)"></rect></g></g>
<g transform="translate(-0.19518908422612535 -0.15452558202137107)"><g transform="rotate(1.764166243904981 65 15)"><rect stroke="black" fill="none" x="60" y="10" width="10" height="10" transform="rotate(0,65,15)"></rect></g></g>
<g transform="translate(0.094660248321421 0.25394003944301385)"><g transform="rotate(0.2979607249675469 75 15)"><rect stroke="black" fill="none" x="70" y="10" width="10" height="10" transform="rotate(0,75,15)"></rect></g></g>
<g transform="translate(-0.008896521306052396 0.3526992736457379)"><g transform="rotate(1.6823557755350012 85 15)"><rect stroke="black" fill="none" x="80" y="10" width="10" height="10" transform="rotate(0,85,15)"></rect></g></g>
<g transform="translate(-0.10890760144844014 0.16260657991686794)"><g transform="rotate(1.8673331046865058 95 15)"><rect stroke="black" fill="none" x="90" y="10" width="10" height="10" transform="rotate(0,95,15)"></rect></g></g>
<g transform="translate(0.28821777328812587 -0.21331077943544824)"><g transform="rotate(0.4334004812626135 105 15)"><rect stroke="black" fill="none" x="100" y="10" width="10" height="10" transform="rotate(0,105,15)"></rect></g></g>
<g transform="translate(0.2944361728783054 -0.3385585489511177)"><g transform="rotate(1.8948820249891183 115 15)"><rect stroke="black" fill="none" x="110" y="10" width="10" height="10" transform="rotate(0,115,15)"></rect></g></g>
<g transform="translate(-0.3451125979334668 0.7728339638686007)"><g transform="rotate(3.746225942110474 5 25)"><rect stroke="black" fill="none" x="0" y="20" width="10" height="10" transform="rotate(0,5,25)"></rect></g></g>
<g transform="translate(0.8673093802130806 0.8865083025262467)"><g transform="rotate(3.333212176255323 15 25)"><rect stroke="black" fill="none" x="10" y="20" width="10" height="10" transform="rotate(0,15,25)"></rect></g></g>
<g transform="translate(0.40264233338446054 1.68760941745074)"><g transform="rotate(3.3489825463821123 25 25)"><rect stroke="black" fill="none" x="20" y="20" width="10" height="10" transform="rotate(0,25,25)"></rect></g></g>
<g transform="translate(-0.347432829789022 0.6257279391079086)"><g transform="rotate(2.66460191276435 35 25)"><rect stroke="black" fill="none" x="30" y="20" width="10" height="10" transform="rotate(0,35,25)"></rect></g></g>
<g transform="translate(0.36343221631799094 1.7000622093280229)"><g transform="rotate(3.06427906117005 45 25)"><rect stroke="black" fill="none" x="40" y="20" width="10" height="10" transform="rotate(0,45,25)"></rect></g></g>
<g transform="translate(-0.07348112296418552 1.807449556382981)"><g transform="rotate(2.3057097008049983 55 25)"><rect stroke="black" fill="none" x="50" y="20" width="10" height="10" transform="rotate(0,55,25)"></rect></g></g>
<g transform="translate(0.612813652055792 1.3036200969616738)"><g transform="rotate(3.087533330650407 65 25)"><rect stroke="black" fill="none" x="60" y="20" width="10" height="10" transform="rotate(0,65,25)"></rect></g></g>
<g transform="translate(-0.46175492340916857 1.132235665756009)"><g transform="rotate(0.9564288049471568 75 25)"><rect stroke="black" fill="none" x="70" y="20" width="10" height="10" transform="rotate(0,75,25)"></rect></g></g>
<g transform="translate(0.34508550236121593 1.5393437584694092)"><g transform="rotate(0.4892242450748782 85 25)"><rect stroke="black" fill="none" x="80" y="20" width="10" height="10" transform="rotate(0,85,25)"></rect></g></g>
<g transform="translate(-0.8536647544263024 1.6773255030696972)"><g transform="rotate(2.9386890319754544 95 25)"><rect stroke="black" fill="none" x="90" y="20" width="10" height="10" transform="rotate(0,95,25)"></rect></g></g>
<g transform="translate(0.7530264369796588 -0.5238111529547611)"><g transform="rotate(1.8722158250884868 105 25)"><rect stroke="black" fill="none" x="100" y="20" width="10" height="10" transform="rotate(0,105,25)"></rect></g></g>
<g transform="translate(0.6473971545192497 0.9716954995577919)"><g transform="rotate(1.5576272275400953 115 25)"><rect stroke="black" fill="none" x="110" y="20" width="10" height="10" transform="rotate(0,115,25)"></rect></g></g>
<g transform="translate(-0.4332088090882782 0.8353320696018032)"><g transform="rotate(2.846241061187528 5 35)"><rect stroke="black" fill="none" x="0" y="30" width="10" height="10" transform="rotate(0,5,35)"></rect></g></g>
<g transform="translate(-0.9950742612562874 3.864271191229903)"><g transform="rotate(0.3757503360477095 15 35)"><rect stroke="black" fill="none" x="10" y="30" width="10" height="10" transform="rotate(0,15,35)"></rect></g></g>
<g transform="translate(-0.1455825351552138 0.797668489891076)"><g transform="rotate(4.700945520042667 25 35)"><rect stroke="black" fill="none" x="20" y="30" width="10" height="10" transform="rotate(0,25,35)"></rect></g></g>
<g transform="translate(-0.38166789562711023 0.5237248840336013)"><g transform="rotate(2.9541170468042703 35 35)"><rect stroke="black" fill="none" x="30" y="30" width="10" height="10" transform="rotate(0,35,35)"></rect></g></g>
<g transform="translate(0.33261252929824914 0.646428387361554)"><g transform="rotate(5.408482472009511 45 35)"><rect stroke="black" fill="none" x="40" y="30" width="10" height="10" transform="rotate(0,45,35)"></rect></g></g>
<g transform="translate(0.04476419039585111 -0.24885225218477847)"><g transform="rotate(2.6717547363947514 55 35)"><rect stroke="black" fill="none" x="50" y="30" width="10" height="10" transform="rotate(0,55,35)"></rect></g></g>
<g transform="translate(-0.12785139131856127 0.6769141513826615)"><g transform="rotate(4.763510920701558 65 35)"><rect stroke="black" fill="none" x="60" y="30" width="10" height="10" transform="rotate(0,65,35)"></rect></g></g>
<g transform="translate(-1.017861448682857 0.6015459294748744)"><g transform="rotate(3.9271629197524636 75 35)"><rect stroke="black" fill="none" x="70" y="30" width="10" height="10" transform="rotate(0,75,35)"></rect></g></g>
<g transform="translate(-0.5027555063796239 0.49746811502933075)"><g transform="rotate(2.1779485925401754 85 35)"><rect stroke="black" fill="none" x="80" y="30" width="10" height="10" transform="rotate(0,85,35)"></rect></g></g>
<g transform="translate(0.6712950509221498 -0.49269439244967006)"><g transform="rotate(3.7788068223740576 95 35)"><rect stroke="black" fill="none" x="90" y="30" width="10" height="10" transform="rotate(0,95,35)"></rect></g></g>
<g transform="translate(0.5241168521855522 3.2707499799127793)"><g transform="rotate(0.4083127359653808 105 35)"><rect stroke="black" fill="none" x="100" y="30" width="10" height="10" transform="rotate(0,105,35)"></rect></g></g>
<g transform="translate(-0.02543686240907772 2.2928880401334766)"><g transform="rotate(3.440179730200675 115 35)"><rect stroke="black" fill="none" x="110" y="30" width="10" height="10" transform="rotate(0,115,35)"></rect></g></g>
<g transform="translate(-0.7872939467509702 4.335708619815643)"><g transform="rotate(1.501932869814753 5 45)"><rect stroke="black" fill="none" x="0" y="40" width="10" height="10" transform="rotate(0,5,45)"></rect></g></g>
<g transform="translate(-1.5597677895481272 -0.8071997998306997)"><g transform="rotate(0.5663408140197107 15 45)"><rect stroke="black" fill="none" x="10" y="40" width="10" height="10" transform="rotate(0,15,45)"></rect></g></g>
<g transform="translate(1.6878094414543294 0.9292334142456464)"><g transform="rotate(2.1780234071614806 25 45)"><rect stroke="black" fill="none" x="20" y="40" width="10" height="10" transform="rotate(0,25,45)"></rect></g></g>
<g transform="translate(0.694361000101064 2.970134087267862)"><g transform="rotate(4.131942928494867 35 45)"><rect stroke="black" fill="none" x="30" y="40" width="10" height="10" transform="rotate(0,35,45)"></rect></g></g>
<g transform="translate(0.002107330963094123 1.6392445010724666)"><g transform="rotate(3.5976189883086103 45 45)"><rect stroke="black" fill="none" x="40" y="40" width="10" height="10" transform="rotate(0,45,45)"></rect></g></g>
<g transform="translate(1.41363797906473 -0.43332842838106256)"><g transform="rotate(6.481820313620449 55 45)"><rect stroke="black" fill="none" x="50" y="40" width="10" height="10" transform="rotate(0,55,45)"></rect></g></g>
<g transform="translate(-0.24837680104103788 1.452708679749145)"><g transform="rotate(5.988586542139518 65 45)"><rect stroke="black" fill="none" x="60" y="40" width="10" height="10" transform="rotate(0,65,45)"></rect></g></g>
<g transform="translate(0.9214111697457372 -0.273194015168992)"><g transform="rotate(7.37835789063342 75 45)"><rect stroke="black" fill="none" x="70" y="40" width="10" height="10" transform="rotate(0,75,45)"></rect></g></g>
<g transform="translate(-0.5066310930447666 -0.4203037980504445)"><g transform="rotate(7.385351239452078 85 45)"><rect stroke="black" fill="none" x="80" y="40" width="10" height="10" transform="rotate(0,85,45)"></rect></g></g>
<g transform="translate(0.404585363684409 -1.1012050779222782)"><g transform="rotate(7.755266789878481 95 45)"><rect stroke="black" fill="none" x="90" y="40" width="10" height="10" transform="rotate(0,95,45)"></rect></g></g>
<g transform="translate(0.7442915563606565 0.13631777355179353)"><g transform="rotate(4.016355547074545 105 45)"><rect stroke="black" fill="none" x="100" y="40" width="10" height="10" transform="rotate(0,105,45)"></rect></g></g>
<g transform="translate(-0.5650905514714901 2.9180367980430546)"><g transform="rotate(7.4872708097135465 115 45)"><rect stroke="black" fill="none" x="110" y="40" width="10" height="10" transform="rotate(0,115,45)"></rect></g></g>
<g transform="translate(1.8858908467931892 -0.9918742615203917)"><g transform="rotate(6.295559172082903 5 55)"><rect stroke="black" fill="none" x="0" y="50" width="10" height="10" transform="rotate(0,5,55)"></rect></g></g>
<g transform="translate(1.7530365499695724 5.730894219753879)"><g transform="rotate(6.534372492868508 15 55)"><rect stroke="black" fill="none" x="10" y="50" width="10" height="10" transform="rotate(0,15,55)"></rect></g></g>
<g transform="translate(1.5271255106757708 2.4212549819260074)"><g transform="rotate(7.439284084861378 25 55)"><rect stroke="black" fill="none" x="20" y="50" width="10" height="10" transform="rotate(0,25,55)"></rect></g></g>
<g transform="translate(0.8679120577030432 0.07896973470481505)"><g transform="rotate(2.3430431010859394 35 55)"><rect stroke="black" fill="none" x="30" y="50" width="10" height="10" transform="rotate(0,35,55)"></rect></g></g>
<g transform="translate(1.3600356809031258 6.462433924369841)"><g transform="rotate(4.553813743702201 45 55)"><rect stroke="black" fill="none" x="40" y="50" width="10" height="10" transform="rotate(0,45,55)"></rect></g></g>
<g transform="translate(1.364413551511369 4.981252263379065)"><g transform="rotate(0.8812345416837681 55 55)"><rect stroke="black" fill="none" x="50" y="50" width="10" height="10" transform="rotate(0,55,55)"></rect></g></g>
<g transform="translate(0.25872102495620375 0.9551003755734389)"><g transform="rotate(3.452888848231514 65 55)"><rect stroke="black" fill="none" x="60" y="50" width="10" height="10" transform="rotate(0,65,55)"></rect></g></g>
<g transform="translate(-0.38147499705113774 5.872642831052418)"><g transform="rotate(4.276635000382213 75 55)"><rect stroke="black" fill="none" x="70" y="50" width="10" height="10" transform="rotate(0,75,55)"></rect></g></g>
<g transform="translate(1.437489736085432 5.292903811103246)"><g transform="rotate(3.242476810364217 85 55)"><rect stroke="black" fill="none" x="80" y="50" width="10" height="10" transform="rotate(0,85,55)"></rect></g></g>
<g transform="translate(-0.37961515197295714 2.443481725629293)"><g transform="rotate(4.811907872627847 95 55)"><rect stroke="black" fill="none" x="90" y="50" width="10" height="10" transform="rotate(0,95,55)"></rect></g></g>
<g transform="translate(1.6150904556683496 2.2545160532419395)"><g transform="rotate(7.953571238283209 105 55)"><rect stroke="black" fill="none" x="100" y="50" width="10" height="10" transform="rotate(0,105,55)"></rect></g></g>
<g transform="translate(-0.9860185285752812 2.1669506438364188)"><g transform="rotate(0.6250999565332646 115 55)"><rect stroke="black" fill="none" x="110" y="50" width="10" height="10" transform="rotate(0,115,55)"></rect></g></g>
<g transform="translate(2.5598937785196805 -0.9602123597951326)"><g transform="rotate(6.2344422331149785 5 65)"><rect stroke="black" fill="none" x="0" y="60" width="10" height="10" transform="rotate(0,5,65)"></rect></g></g>
<g transform="translate(1.3879230726063132 1.162411298141421)"><g transform="rotate(11.688770311325815 15 65)"><rect stroke="black" fill="none" x="10" y="60" width="10" height="10" transform="rotate(0,15,65)"></rect></g></g>
<g transform="translate(1.6215626214274756 0.3620805411036012)"><g transform="rotate(2.7829708029925833 25 65)"><rect stroke="black" fill="none" x="20" y="60" width="10" height="10" transform="rotate(0,25,65)"></rect></g></g>
<g transform="translate(0.4021411233512655 -2.277488904050432)"><g transform="rotate(9.540342707830016 35 65)"><rect stroke="black" fill="none" x="30" y="60" width="10" height="10" transform="rotate(0,35,65)"></rect></g></g>
<g transform="translate(-1.3266069998474221 1.558857773328059)"><g transform="rotate(10.498236259835597 45 65)"><rect stroke="black" fill="none" x="40" y="60" width="10" height="10" transform="rotate(0,45,65)"></rect></g></g>
<g transform="translate(-1.4561643381108016 5.210459258529516)"><g transform="rotate(9.262694031351662 55 65)"><rect stroke="black" fill="none" x="50" y="60" width="10" height="10" transform="rotate(0,55,65)"></rect></g></g>
<g transform="translate(-0.24967996975088003 4.544581675396355)"><g transform="rotate(4.170316690628403 65 65)"><rect stroke="black" fill="none" x="60" y="60" width="10" height="10" transform="rotate(0,65,65)"></rect></g></g>
<g transform="translate(-0.12577443129245625 0.09384021819520694)"><g transform="rotate(7.090368095257392 75 65)"><rect stroke="black" fill="none" x="70" y="60" width="10" height="10" transform="rotate(0,75,65)"></rect></g></g>
<g transform="translate(2.1140473400685513 -0.664772458071929)"><g transform="rotate(11.21723473780685 85 65)"><rect stroke="black" fill="none" x="80" y="60" width="10" height="10" transform="rotate(0,85,65)"></rect></g></g>
<g transform="translate(-1.8175589147232372 7.548665162472196)"><g transform="rotate(8.179795615091095 95 65)"><rect stroke="black" fill="none" x="90" y="60" width="10" height="10" transform="rotate(0,95,65)"></rect></g></g>
<g transform="translate(0.014382112454893736 -1.506437418162407)"><g transform="rotate(10.537092604705759 105 65)"><rect stroke="black" fill="none" x="100" y="60" width="10" height="10" transform="rotate(0,105,65)"></rect></g></g>
<g transform="translate(2.2993626798962126 3.5277555859352114)"><g transform="rotate(2.0763780152346425 115 65)"><rect stroke="black" fill="none" x="110" y="60" width="10" height="10" transform="rotate(0,115,65)"></rect></g></g>
<g transform="translate(-2.4503391582125844 2.975783044564472)"><g transform="rotate(6.592533970560646 5 75)"><rect stroke="black" fill="none" x="0" y="70" width="10" height="10" transform="rotate(0,5,75)"></rect></g></g>
<g transform="translate(-2.9622696851695878 6.062522588943453)"><g transform="rotate(2.5496766725158864 15 75)"><rect stroke="black" fill="none" x="10" y="70" width="10" height="10" transform="rotate(0,15,75)"></rect></g></g>
<g transform="translate(-1.189672963953212 4.880462294835082)"><g transform="rotate(13.114679521634184 25 75)"><rect stroke="black" fill="none" x="20" y="70" width="10" height="10" transform="rotate(0,25,75)"></rect></g></g>
<g transform="translate(2.3679871695203536 8.435642685676388)"><g transform="rotate(8.145899582131275 35 75)"><rect stroke="black" fill="none" x="30" y="70" width="10" height="10" transform="rotate(0,35,75)"></rect></g></g>
<g transform="translate(-1.8513136111753774 1.5192228143800879)"><g transform="rotate(6.006358517300124 45 75)"><rect stroke="black" fill="none" x="40" y="70" width="10" height="10" transform="rotate(0,45,75)"></rect></g></g>
<g transform="translate(0.9379903983435978 5.562399326910815)"><g transform="rotate(1.6580839201393605 55 75)"><rect stroke="black" fill="none" x="50" y="70" width="10" height="10" transform="rotate(0,55,75)"></rect></g></g>
<g transform="translate(-2.9638966369307087 1.1060291071041206)"><g transform="rotate(12.537530040824228 65 75)"><rect stroke="black" fill="none" x="60" y="70" width="10" height="10" transform="rotate(0,65,75)"></rect></g></g>
<g transform="translate(1.7972102965605785 1.1658297854888353)"><g transform="rotate(0.852823912911359 75 75)"><rect stroke="black" fill="none" x="70" y="70" width="10" height="10" transform="rotate(0,75,75)"></rect></g></g>
<g transform="translate(-1.2472508647123672 0.9694582734230597)"><g transform="rotate(1.8639848882287582 85 75)"><rect stroke="black" fill="none" x="80" y="70" width="10" height="10" transform="rotate(0,85,75)"></rect></g></g>
<g transform="translate(-2.508087260661884 7.322629694016601)"><g transform="rotate(12.415739252081957 95 75)"><rect stroke="black" fill="none" x="90" y="70" width="10" height="10" transform="rotate(0,95,75)"></rect></g></g>
<g transform="translate(-1.2477435180680643 3.2235718522405206)"><g transform="rotate(0.46376765365262707 105 75)"><rect stroke="black" fill="none" x="100" y="70" width="10" height="10" transform="rotate(0,105,75)"></rect></g></g>
<g transform="translate(2.22623926541423 0.15017095306008788)"><g transform="rotate(2.1600057825451904 115 75)"><rect stroke="black" fill="none" x="110" y="70" width="10" height="10" transform="rotate(0,115,75)"></rect></g></g>
<g transform="translate(1.1505034089213964 -2.1362993998922315)"><g transform="rotate(1.9202416033597818 5 85)"><rect stroke="black" fill="none" x="0" y="80" width="10" height="10" transform="rotate(0,5,85)"></rect></g></g>
<g transform="translate(-1.2942254002116882 1.6888018031334497)"><g transform="rotate(7.4700636266157945 15 85)"><rect stroke="black" fill="none" x="10" y="80" width="10" height="10" transform="rotate(0,15,85)"></rect></g></g>
<g transform="translate(2.684948471253873 8.117833514904468)"><g transform="rotate(6.328939912123736 25 85)"><rect stroke="black" fill="none" x="20" y="80" width="10" height="10" transform="rotate(0,25,85)"></rect></g></g>
<g transform="translate(-1.5329011436480469 3.3074937104602298)"><g transform="rotate(12.420877591019625 35 85)"><rect stroke="black" fill="none" x="30" y="80" width="10" height="10" transform="rotate(0,35,85)"></rect></g></g>
<g transform="translate(-0.4852798869832746 3.101605387499849)"><g transform="rotate(12.054858853891322 45 85)"><rect stroke="black" fill="none" x="40" y="80" width="10" height="10" transform="rotate(0,45,85)"></rect></g></g>
<g transform="translate(-2.6456148897702976 3.207713887564521)"><g transform="rotate(5.264528363453723 55 85)"><rect stroke="black" fill="none" x="50" y="80" width="10" height="10" transform="rotate(0,55,85)"></rect></g></g>
<g transform="translate(2.2054707901919817 7.624706283170683)"><g transform="rotate(4.080241648041945 65 85)"><rect stroke="black" fill="none" x="60" y="80" width="10" height="10" transform="rotate(0,65,85)"></rect></g></g>
<g transform="translate(2.1304099931021994 4.389866639141138)"><g transform="rotate(4.492831174386512 75 85)"><rect stroke="black" fill="none" x="70" y="80" width="10" height="10" transform="rotate(0,75,85)"></rect></g></g>
<g transform="translate(-0.8356447529057784 6.174988972635944)"><g transform="rotate(3.2507044411041854 85 85)"><rect stroke="black" fill="none" x="80" y="80" width="10" height="10" transform="rotate(0,85,85)"></rect></g></g>
<g transform="translate(-2.803775411159168 0.4565231337291813)"><g transform="rotate(13.839200854234912 95 85)"><rect stroke="black" fill="none" x="90" y="80" width="10" height="10" transform="rotate(0,95,85)"></rect></g></g>
<g transform="translate(-1.6734635301208054 1.8477612318567176)"><g transform="rotate(10.955450933054689 105 85)"><rect stroke="black" fill="none" x="100" y="80" width="10" height="10" transform="rotate(0,105,85)"></rect></g></g>
<g transform="translate(-0.9817278334880388 7.850609696220758)"><g transform="rotate(13.654266172939552 115 85)"><rect stroke="black" fill="none" x="110" y="80" width="10" height="10" transform="rotate(0,115,85)"></rect></g></g>
<g transform="translate(1.2236358614659824 6.328137961539728)"><g transform="rotate(2.373703031729897 5 95)"><rect stroke="black" fill="none" x="0" y="90" width="10" height="10" transform="rotate(0,5,95)"></rect></g></g>
<g transform="translate(2.0762603068439742 7.639534794287282)"><g transform="rotate(15.346624064488994 15 95)"><rect stroke="black" fill="none" x="10" y="90" width="10" height="10" transform="rotate(0,15,95)"></rect></g></g>
<g transform="translate(-1.7044761876081282 11.695351566552839)"><g transform="rotate(9.205397126911818 25 95)"><rect stroke="black" fill="none" x="20" y="90" width="10" height="10" transform="rotate(0,25,95)"></rect></g></g>
<g transform="translate(-1.6889390013861139 0.417770858652029)"><g transform="rotate(0.6102766126030426 35 95)"><rect stroke="black" fill="none" x="30" y="90" width="10" height="10" transform="rotate(0,35,95)"></rect></g></g>
<g transform="translate(-1.828019169163154 6.413414882801058)"><g transform="rotate(5.356194083998637 45 95)"><rect stroke="black" fill="none" x="40" y="90" width="10" height="10" transform="rotate(0,45,95)"></rect></g></g>
<g transform="translate(0.8563844059032397 11.07330913780234)"><g transform="rotate(8.389168810179058 55 95)"><rect stroke="black" fill="none" x="50" y="90" width="10" height="10" transform="rotate(0,55,95)"></rect></g></g>
<g transform="translate(-3.6222382400610065 -1.8640984665795584)"><g transform="rotate(16.54923988780855 65 95)"><rect stroke="black" fill="none" x="60" y="90" width="10" height="10" transform="rotate(0,65,95)"></rect></g></g>
<g transform="translate(0.06691134305063295 0.41795834467238313)"><g transform="rotate(1.8327822285653244 75 95)"><rect stroke="black" fill="none" x="70" y="90" width="10" height="10" transform="rotate(0,75,95)"></rect></g></g>
<g transform="translate(3.183402218942921 4.564640685311598)"><g transform="rotate(5.127940323608828 85 95)"><rect stroke="black" fill="none" x="80" y="90" width="10" height="10" transform="rotate(0,85,95)"></rect></g></g>
<g transform="translate(-2.250312149718021 2.532200243733248)"><g transform="rotate(11.048250045521073 95 95)"><rect stroke="black" fill="none" x="90" y="90" width="10" height="10" transform="rotate(0,95,95)"></rect></g></g>
<g transform="translate(3.434402449443184 4.28595907564455)"><g transform="rotate(3.759574203840018 105 95)"><rect stroke="black" fill="none" x="100" y="90" width="10" height="10" transform="rotate(0,105,95)"></rect></g></g>
<g transform="translate(-0.3709707158302469 6.706856826724659)"><g transform="rotate(15.463087279548413 115 95)"><rect stroke="black" fill="none" x="110" y="90" width="10" height="10" transform="rotate(0,115,95)"></rect></g></g>
<g transform="translate(2.2668167054794033 4.221275852291674)"><g transform="rotate(18.785802899685308 5 105)"><rect stroke="black" fill="none" x="0" y="100" width="10" height="10" transform="rotate(0,5,105)"></rect></g></g>
<g transform="translate(-2.5113393358425027 2.2080784545849923)"><g transform="rotate(9.476194284114117 15 105)"><rect stroke="black" fill="none" x="10" y="100" width="10" height="10" transform="rotate(0,15,105)"></rect></g></g>
<g transform="translate(-1.2462295241764418 -2.8027158116495814)"><g transform="rotate(8.377037191646002 25 105)"><rect stroke="black" fill="none" x="20" y="100" width="10" height="10" transform="rotate(0,25,105)"></rect></g></g>
<g transform="translate(2.318060646698483 -3.7639665867298415)"><g transform="rotate(9.053949588481794 35 105)"><rect stroke="black" fill="none" x="30" y="100" width="10" height="10" transform="rotate(0,35,105)"></rect></g></g>
<g transform="translate(-1.4416936314972388 -4.323566074061167)"><g transform="rotate(9.356114933227579 45 105)"><rect stroke="black" fill="none" x="40" y="100" width="10" height="10" transform="rotate(0,45,105)"></rect></g></g>
<g transform="translate(2.084763288724223 1.5994098627968114)"><g transform="rotate(0.9578561603441383 55 105)"><rect stroke="black" fill="none" x="50" y="100" width="10" height="10" transform="rotate(0,55,105)"></rect></g></g>
<g transform="translate(1.8295741852592204 12.167814450597325)"><g transform="rotate(9.450223887152756 65 105)"><rect stroke="black" fill="none" x="60" y="100" width="10" height="10" transform="rotate(0,65,105)"></rect></g></g>
<g transform="translate(-0.9737176052526104 2.4998545018490397)"><g transform="rotate(3.7070501300110883 75 105)"><rect stroke="black" fill="none" x="70" y="100" width="10" height="10" transform="rotate(0,75,105)"></rect></g></g>
<g transform="translate(1.0896985095567349 -1.0918216094036435)"><g transform="rotate(10.209708745413321 85 105)"><rect stroke="black" fill="none" x="80" y="100" width="10" height="10" transform="rotate(0,85,105)"></rect></g></g>
<g transform="translate(-1.224994152005646 5.727260824350594)"><g transform="rotate(12.746647124465166 95 105)"><rect stroke="black" fill="none" x="90" y="100" width="10" height="10" transform="rotate(0,95,105)"></rect></g></g>
<g transform="translate(0.6487016536801482 6.959509781567174)"><g transform="rotate(6.656064562060198 105 105)"><rect stroke="black" fill="none" x="100" y="100" width="10" height="10" transform="rotate(0,105,105)"></rect></g></g>
<g transform="translate(-1.7360077759724257 0.6136788774667439)"><g transform="rotate(2.4646919221658505 115 105)"><rect stroke="black" fill="none" x="110" y="100" width="10" height="10" transform="rotate(0,115,105)"></rect></g></g>
<g transform="translate(-4.147680303722498 -0.6027248831183165)"><g transform="rotate(19.633668067791902 5 115)"><rect stroke="black" fill="none" x="0" y="110" width="10" height="10" transform="rotate(0,5,115)"></rect></g></g>
<g transform="translate(1.5692213333340153 0.6755993702014003)"><g transform="rotate(0.9740307011907959 15 115)"><rect stroke="black" fill="none" x="10" y="110" width="10" height="10" transform="rotate(0,15,115)"></rect></g></g>
<g transform="translate(2.1232162601288698 -1.8220172990284915)"><g transform="rotate(14.216279594500524 25 115)"><rect stroke="black" fill="none" x="20" y="110" width="10" height="10" transform="rotate(0,25,115)"></rect></g></g>
<g transform="translate(4.001453253473114 0.2783043966346659)"><g transform="rotate(8.768066257541163 35 115)"><rect stroke="black" fill="none" x="30" y="110" width="10" height="10" transform="rotate(0,35,115)"></rect></g></g>
<g transform="translate(-3.2138410143047786 -0.28069754215411535)"><g transform="rotate(14.92884787346538 45 115)"><rect stroke="black" fill="none" x="40" y="110" width="10" height="10" transform="rotate(0,45,115)"></rect></g></g>
<g transform="translate(0.09974481480695463 13.673525386534719)"><g transform="rotate(12.484605152254321 55 115)"><rect stroke="black" fill="none" x="50" y="110" width="10" height="10" transform="rotate(0,55,115)"></rect></g></g>
<g transform="translate(1.050610751819156 13.600983965676095)"><g transform="rotate(0.9806414170324591 65 115)"><rect stroke="black" fill="none" x="60" y="110" width="10" height="10" transform="rotate(0,65,115)"></rect></g></g>
<g transform="translate(-0.4849967299576976 8.058287456335362)"><g transform="rotate(12.025223260885578 75 115)"><rect stroke="black" fill="none" x="70" y="110" width="10" height="10" transform="rotate(0,75,115)"></rect></g></g>
<g transform="translate(-1.5391333335631154 -1.823320833010388)"><g transform="rotate(1.1486177208699184 85 115)"><rect stroke="black" fill="none" x="80" y="110" width="10" height="10" transform="rotate(0,85,115)"></rect></g></g>
<g transform="translate(4.626994324253793 -0.6187855123921322)"><g transform="rotate(3.3882605856385264 95 115)"><rect stroke="black" fill="none" x="90" y="110" width="10" height="10" transform="rotate(0,95,115)"></rect></g></g>
<g transform="translate(3.940618225466073 7.877778789126978)"><g transform="rotate(18.34056791457159 105 115)"><rect stroke="black" fill="none" x="100" y="110" width="10" height="10" transform="rotate(0,105,115)"></rect></g></g>
<g transform="translate(0.06137442389939807 6.129120640665468)"><g transform="rotate(20.64006593670156 115 115)"><rect stroke="black" fill="none" x="110" y="110" width="10" height="10" transform="rotate(0,115,115)"></rect></g></g>
<g transform="translate(-4.357377287898335 5.190119608651365)"><g transform="rotate(16.0350039098816 5 125)"><rect stroke="black" fill="none" x="0" y="120" width="10" height="10" transform="rotate(0,5,125)"></rect></g></g>
<g transform="translate(3.115843343495907 -2.32949414476198)"><g transform="rotate(14.156006478168381 15 125)"><rect stroke="black" fill="none" x="10" y="120" width="10" height="10" transform="rotate(0,15,125)"></rect></g></g>
<g transform="translate(2.6667797273114697 2.569672602777324)"><g transform="rotate(12.81343196696327 25 125)"><rect stroke="black" fill="none" x="20" y="120" width="10" height="10" transform="rotate(0,25,125)"></rect></g></g>
<g transform="translate(-2.5418864642731926 14.415874505958227)"><g transform="rotate(19.228889354557804 35 125)"><rect stroke="black" fill="none" x="30" y="120" width="10" height="10" transform="rotate(0,35,125)"></rect></g></g>
<g transform="translate(-0.7621883052092295 8.629470870851156)"><g transform="rotate(5.405616221510757 45 125)"><rect stroke="black" fill="none" x="40" y="120" width="10" height="10" transform="rotate(0,45,125)"></rect></g></g>
<g transform="translate(3.3515724383374845 2.8509723169593233)"><g transform="rotate(19.838389071226274 55 125)"><rect stroke="black" fill="none" x="50" y="120" width="10" height="10" transform="rotate(0,55,125)"></rect></g></g>
<g transform="translate(3.2058615518368967 2.7185314684299584)"><g transform="rotate(20.589113195948205 65 125)"><rect stroke="black" fill="none" x="60" y="120" width="10" height="10" transform="rotate(0,65,125)"></rect></g></g>
<g transform="translate(-2.2120235707170184 0.2814175402076122)"><g transform="rotate(14.128331684136331 75 125)"><rect stroke="black" fill="none" x="70" y="120" width="10" height="10" transform="rotate(0,75,125)"></rect></g></g>
<g transform="translate(-3.4798321539184554 1.6136426962520813)"><g transform="rotate(19.47719247437037 85 125)"><rect stroke="black" fill="none" x="80" y="120" width="10" height="10" transform="rotate(0,85,125)"></rect></g></g>
<g transform="translate(-3.857115158401905 9.57860341695975)"><g transform="rotate(6.964237168183192 95 125)"><rect stroke="black" fill="none" x="90" y="120" width="10" height="10" transform="rotate(0,95,125)"></rect></g></g>
<g transform="translate(-1.6084596535325155 3.891120576480631)"><g transform="rotate(6.931776133903513 105 125)"><rect stroke="black" fill="none" x="100" y="120" width="10" height="10" transform="rotate(0,105,125)"></rect></g></g>
<g transform="translate(-1.501570233263136 6.981258756386824)"><g transform="rotate(4.3694234423530665 115 125)"><rect stroke="black" fill="none" x="110" y="120" width="10" height="10" transform="rotate(0,115,125)"></rect></g></g>
<g transform="translate(4.405302632039816 6.636563176913067)"><g transform="rotate(13.198377143469303 5 135)"><rect stroke="black" fill="none" x="0" y="130" width="10" height="10" transform="rotate(0,5,135)"></rect></g></g>
<g transform="translate(-5.44883173619855 16.842335883334936)"><g transform="rotate(15.479055315395954 15 135)"><rect stroke="black" fill="none" x="10" y="130" width="10" height="10" transform="rotate(0,15,135)"></rect></g></g>
<g transform="translate(-1.2614534260871881 -5.177198838032977)"><g transform="rotate(21.178263216459627 25 135)"><rect stroke="black" fill="none" x="20" y="130" width="10" height="10" transform="rotate(0,25,135)"></rect></g></g>
<g transform="translate(2.09957954739325 7.753250532589612)"><g transform="rotate(12.915789569178203 35 135)"><rect stroke="black" fill="none" x="30" y="130" width="10" height="10" transform="rotate(0,35,135)"></rect></g></g>
<g transform="translate(2.0616857174226295 4.1958773469529715)"><g transform="rotate(24.15914076552056 45 135)"><rect stroke="black" fill="none" x="40" y="130" width="10" height="10" transform="rotate(0,45,135)"></rect></g></g>
<g transform="translate(4.999049224743412 5.9640083495120395)"><g transform="rotate(12.089483506118633 55 135)"><rect stroke="black" fill="none" x="50" y="130" width="10" height="10" transform="rotate(0,55,135)"></rect></g></g>
<g transform="translate(-4.8229705863709045 15.681493453940405)"><g transform="rotate(6.894208496823386 65 135)"><rect stroke="black" fill="none" x="60" y="130" width="10" height="10" transform="rotate(0,65,135)"></rect></g></g>
<g transform="translate(4.301518815646694 -1.4365800702686888)"><g transform="rotate(13.802992351893135 75 135)"><rect stroke="black" fill="none" x="70" y="130" width="10" height="10" transform="rotate(0,75,135)"></rect></g></g>
<g transform="translate(5.231809761245379 16.017380914320576)"><g transform="rotate(19.123886527828116 85 135)"><rect stroke="black" fill="none" x="80" y="130" width="10" height="10" transform="rotate(0,85,135)"></rect></g></g>
<g transform="translate(0.2589433263713019 2.273919697747612)"><g transform="rotate(8.482266065613901 95 135)"><rect stroke="black" fill="none" x="90" y="130" width="10" height="10" transform="rotate(0,95,135)"></rect></g></g>
<g transform="translate(-3.098352579761959 6.757738819874491)"><g transform="rotate(20.16186504609183 105 135)"><rect stroke="black" fill="none" x="100" y="130" width="10" height="10" transform="rotate(0,105,135)"></rect></g></g>
<g transform="translate(-2.8105936693633695 14.488284666860455)"><g transform="rotate(21.847481437436056 115 135)"><rect stroke="black" fill="none" x="110" y="130" width="10" height="10" transform="rotate(0,115,135)"></rect></g></g>
<g transform="translate(-0.35679483434369796 18.172885419871285)"><g transform="rotate(26.73538550903287 5 145)"><rect stroke="black" fill="none" x="0" y="140" width="10" height="10" transform="rotate(0,5,145)"></rect></g></g>
<g transform="translate(-3.434245375865858 14.704963742987493)"><g transform="rotate(9.923582698287635 15 145)"><rect stroke="black" fill="none" x="10" y="140" width="10" height="10" transform="rotate(0,15,145)"></rect></g></g>
<g transform="translate(-2.812189006530287 15.782754455574372)"><g transform="rotate(10.284747139342912 25 145)"><rect stroke="black" fill="none" x="20" y="140" width="10" height="10" transform="rotate(0,25,145)"></rect></g></g>
<g transform="translate(-1.5451704772802666 3.456151376146501)"><g transform="rotate(20.255714815931114 35 145)"><rect stroke="black" fill="none" x="30" y="140" width="10" height="10" transform="rotate(0,35,145)"></rect></g></g>
<g transform="translate(-5.659954595970903 4.4720514897812595)"><g transform="rotate(25.039679556339053 45 145)"><rect stroke="black" fill="none" x="40" y="140" width="10" height="10" transform="rotate(0,45,145)"></rect></g></g>
<g transform="translate(-4.520747394411269 -2.6478371109524406)"><g transform="rotate(2.9503922158459774 55 145)"><rect stroke="black" fill="none" x="50" y="140" width="10" height="10" transform="rotate(0,55,145)"></rect></g></g>
<g transform="translate(0.6164612463498553 9.019672380165375)"><g transform="rotate(23.390560688682893 65 145)"><rect stroke="black" fill="none" x="60" y="140" width="10" height="10" transform="rotate(0,65,145)"></rect></g></g>
<g transform="translate(0.5799162604787824 11.338631117408196)"><g transform="rotate(15.499768828159116 75 145)"><rect stroke="black" fill="none" x="70" y="140" width="10" height="10" transform="rotate(0,75,145)"></rect></g></g>
<g transform="translate(5.350206580938385 -2.880392771328055)"><g transform="rotate(5.393972570023449 85 145)"><rect stroke="black" fill="none" x="80" y="140" width="10" height="10" transform="rotate(0,85,145)"></rect></g></g>
<g transform="translate(-2.224440871521138 -1.7416955123408382)"><g transform="rotate(19.429762189658597 95 145)"><rect stroke="black" fill="none" x="90" y="140" width="10" height="10" transform="rotate(0,95,145)"></rect></g></g>
<g transform="translate(-1.08446003959586 9.108262323109718)"><g transform="rotate(14.458373061056434 105 145)"><rect stroke="black" fill="none" x="100" y="140" width="10" height="10" transform="rotate(0,105,145)"></rect></g></g>
<g transform="translate(-3.0829042508085043 15.090200506821068)"><g transform="rotate(24.19846219966207 115 145)"><rect stroke="black" fill="none" x="110" y="140" width="10" height="10" transform="rotate(0,115,145)"></rect></g></g>
<g transform="translate(1.8316483668756796 8.735588817190859)"><g transform="rotate(5.575731499292475 5 155)"><rect stroke="black" fill="none" x="0" y="150" width="10" height="10" transform="rotate(0,5,155)"></rect></g></g>
<g transform="translate(-6.1318766534874705 14.871805009839795)"><g transform="rotate(16.419390151230456 15 155)"><rect stroke="black" fill="none" x="10" y="150" width="10" height="10" transform="rotate(0,15,155)"></rect></g></g>
<g transform="translate(-3.387587835461707 -2.237051987586778)"><g transform="rotate(14.15237363457912 25 155)"><rect stroke="black" fill="none" x="20" y="150" width="10" height="10" transform="rotate(0,25,155)"></rect></g></g>
<g transform="translate(0.6096426086554301 11.074418945698097)"><g transform="rotate(15.688444848432729 35 155)"><rect stroke="black" fill="none" x="30" y="150" width="10" height="10" transform="rotate(0,35,155)"></rect></g></g>
<g transform="translate(2.407708030795108 12.302261757867837)"><g transform="rotate(27.854811257494404 45 155)"><rect stroke="black" fill="none" x="40" y="150" width="10" height="10" transform="rotate(0,45,155)"></rect></g></g>
<g transform="translate(6.504093975238957 4.219513207548726)"><g transform="rotate(18.019697000439564 55 155)"><rect stroke="black" fill="none" x="50" y="150" width="10" height="10" transform="rotate(0,55,155)"></rect></g></g>
<g transform="translate(-3.6433349634075185 7.349543839577752)"><g transform="rotate(18.7846771490867 65 155)"><rect stroke="black" fill="none" x="60" y="150" width="10" height="10" transform="rotate(0,65,155)"></rect></g></g>
<g transform="translate(-5.700994242485877 -5.754148646377125)"><g transform="rotate(9.435200701051775 75 155)"><rect stroke="black" fill="none" x="70" y="150" width="10" height="10" transform="rotate(0,75,155)"></rect></g></g>
<g transform="translate(-3.8790652115064868 12.08458999381484)"><g transform="rotate(4.5827075921645015 85 155)"><rect stroke="black" fill="none" x="80" y="150" width="10" height="10" transform="rotate(0,85,155)"></rect></g></g>
<g transform="translate(3.565852870584937 7.160989080445033)"><g transform="rotate(13.29556012127159 95 155)"><rect stroke="black" fill="none" x="90" y="150" width="10" height="10" transform="rotate(0,95,155)"></rect></g></g>
<g transform="translate(5.002426478566338 14.748356830405621)"><g transform="rotate(0.46613088322810975 105 155)"><rect stroke="black" fill="none" x="100" y="150" width="10" height="10" transform="rotate(0,105,155)"></rect></g></g>
<g transform="translate(0.5663354940622396 -2.573659424608081)"><g transform="rotate(16.15736833722424 115 155)"><rect stroke="black" fill="none" x="110" y="150" width="10" height="10" transform="rotate(0,115,155)"></rect></g></g>
<g transform="translate(4.9533981173363 18.199536962106574)"><g transform="rotate(5.861006934870327 5 165)"><rect stroke="black" fill="none" x="0" y="160" width="10" height="10" transform="rotate(0,5,165)"></rect></g></g>
<g transform="translate(1.8387161738824789 -1.2520454968420367)"><g transform="rotate(29.09418499855419 15 165)"><rect stroke="black" fill="none" x="10" y="160" width="10" height="10" transform="rotate(0,15,165)"></rect></g></g>
<g transform="translate(5.173857003841859 9.529218902750408)"><g transform="rotate(14.416487221905065 25 165)"><rect stroke="black" fill="none" x="20" y="160" width="10" height="10" transform="rotate(0,25,165)"></rect></g></g>
<g transform="translate(-5.764457816772059 12.49465173569558)"><g transform="rotate(1.563827057782591 35 165)"><rect stroke="black" fill="none" x="30" y="160" width="10" height="10" transform="rotate(0,35,165)"></rect></g></g>
<g transform="translate(-6.156549717078839 4.35735808019682)"><g transform="rotate(5.721475649699141 45 165)"><rect stroke="black" fill="none" x="40" y="160" width="10" height="10" transform="rotate(0,45,165)"></rect></g></g>
<g transform="translate(-4.385855905121616 -2.818763993767954)"><g transform="rotate(13.700880090194142 55 165)"><rect stroke="black" fill="none" x="50" y="160" width="10" height="10" transform="rotate(0,55,165)"></rect></g></g>
<g transform="translate(-2.804660972460873 15.177044410250517)"><g transform="rotate(17.34097092099374 65 165)"><rect stroke="black" fill="none" x="60" y="160" width="10" height="10" transform="rotate(0,65,165)"></rect></g></g>
<g transform="translate(0.9590570480048157 -6.541969894523095)"><g transform="rotate(5.529843565167709 75 165)"><rect stroke="black" fill="none" x="70" y="160" width="10" height="10" transform="rotate(0,75,165)"></rect></g></g>
<g transform="translate(-1.4572689601784834 9.848039158559093)"><g transform="rotate(7.681210261605544 85 165)"><rect stroke="black" fill="none" x="80" y="160" width="10" height="10" transform="rotate(0,85,165)"></rect></g></g>
<g transform="translate(-2.511846255221096 14.774338312287203)"><g transform="rotate(11.462990424471545 95 165)"><rect stroke="black" fill="none" x="90" y="160" width="10" height="10" transform="rotate(0,95,165)"></rect></g></g>
<g transform="translate(-5.540518002607547 15.248890614170378)"><g transform="rotate(29.21129938519228 105 165)"><rect stroke="black" fill="none" x="100" y="160" width="10" height="10" transform="rotate(0,105,165)"></rect></g></g>
<g transform="translate(-2.348303609055578 2.281977490849404)"><g transform="rotate(27.623332819872715 115 165)"><rect stroke="black" fill="none" x="110" y="160" width="10" height="10" transform="rotate(0,115,165)"></rect></g></g>
<g transform="translate(-6.994415300809944 11.25260624950101)"><g transform="rotate(12.201573727542426 5 175)"><rect stroke="black" fill="none" x="0" y="170" width="10" height="10" transform="rotate(0,5,175)"></rect></g></g>
<g transform="translate(6.778061766200992 18.418559316776633)"><g transform="rotate(6.0441851452722615 15 175)"><rect stroke="black" fill="none" x="10" y="170" width="10" height="10" transform="rotate(0,15,175)"></rect></g></g>
<g transform="translate(-5.780144295671728 14.365637544055694)"><g transform="rotate(33.12170975780273 25 175)"><rect stroke="black" fill="none" x="20" y="170" width="10" height="10" transform="rotate(0,25,175)"></rect></g></g>
<g transform="translate(0.010052637894024663 -1.4560677787057346)"><g transform="rotate(2.96610846267259 35 175)"><rect stroke="black" fill="none" x="30" y="170" width="10" height="10" transform="rotate(0,35,175)"></rect></g></g>
<g transform="translate(-1.3360015893481103 7.562157052772534)"><g transform="rotate(4.181972003569357 45 175)"><rect stroke="black" fill="none" x="40" y="170" width="10" height="10" transform="rotate(0,45,175)"></rect></g></g>
<g transform="translate(-4.154019008077016 20.343239436687846)"><g transform="rotate(20.381167299323664 55 175)"><rect stroke="black" fill="none" x="50" y="170" width="10" height="10" transform="rotate(0,55,175)"></rect></g></g>
<g transform="translate(3.749012367218766 -6.261085924471586)"><g transform="rotate(10.734987340921467 65 175)"><rect stroke="black" fill="none" x="60" y="170" width="10" height="10" transform="rotate(0,65,175)"></rect></g></g>
<g transform="translate(-3.184405188356796 2.6719798172548987)"><g transform="rotate(27.170905941149776 75 175)"><rect stroke="black" fill="none" x="70" y="170" width="10" height="10" transform="rotate(0,75,175)"></rect></g></g>
<g transform="translate(0.9290085385166496 19.103505615050583)"><g transform="rotate(2.2479135873301597 85 175)"><rect stroke="black" fill="none" x="80" y="170" width="10" height="10" transform="rotate(0,85,175)"></rect></g></g>
<g transform="translate(4.236392932230872 -1.9677228749067375)"><g transform="rotate(17.334071070187143 95 175)"><rect stroke="black" fill="none" x="90" y="170" width="10" height="10" transform="rotate(0,95,175)"></rect></g></g>
<g transform="translate(0.33875846050209724 5.764548108722961)"><g transform="rotate(22.360756892524588 105 175)"><rect stroke="black" fill="none" x="100" y="170" width="10" height="10" transform="rotate(0,105,175)"></rect></g></g>
<g transform="translate(4.436990654153517 7.7103826834784925)"><g transform="rotate(24.83379034723865 115 175)"><rect stroke="black" fill="none" x="110" y="170" width="10" height="10" transform="rotate(0,115,175)"></rect></g></g>
<g transform="translate(3.0041954460409963 1.8632106852826515)"><g transform="rotate(13.090462880870927 5 185)"><rect stroke="black" fill="none" x="0" y="180" width="10" height="10" transform="rotate(0,5,185)"></rect></g></g>
<g transform="translate(4.6265367995028805 13.21033550788626)"><g transform="rotate(17.82883373951982 15 185)"><rect stroke="black" fill="none" x="10" y="180" width="10" height="10" transform="rotate(0,15,185)"></rect></g></g>
<g transform="translate(4.2533095709872475 10.726044621538183)"><g transform="rotate(15.886048685387602 25 185)"><rect stroke="black" fill="none" x="20" y="180" width="10" height="10" transform="rotate(0,25,185)"></rect></g></g>
<g transform="translate(6.775978224258094 -4.160444469010242)"><g transform="rotate(32.706702803114815 35 185)"><rect stroke="black" fill="none" x="30" y="180" width="10" height="10" transform="rotate(0,35,185)"></rect></g></g>
<g transform="translate(7.7722380932576085 5.38715097224159)"><g transform="rotate(5.501953784822689 45 185)"><rect stroke="black" fill="none" x="40" y="180" width="10" height="10" transform="rotate(0,45,185)"></rect></g></g>
<g transform="translate(3.0559779431394203 7.430361358897881)"><g transform="rotate(13.747930821257485 55 185)"><rect stroke="black" fill="none" x="50" y="180" width="10" height="10" transform="rotate(0,55,185)"></rect></g></g>
<g transform="translate(-4.977074299243331 15.291242827737769)"><g transform="rotate(26.555808234565006 65 185)"><rect stroke="black" fill="none" x="60" y="180" width="10" height="10" transform="rotate(0,65,185)"></rect></g></g>
<g transform="translate(3.727296143217246 -4.524126907430977)"><g transform="rotate(1.9772200169366183 75 185)"><rect stroke="black" fill="none" x="70" y="180" width="10" height="10" transform="rotate(0,75,185)"></rect></g></g>
<g transform="translate(4.298346147073057 -0.3568677787356487)"><g transform="rotate(27.438833137726743 85 185)"><rect stroke="black" fill="none" x="80" y="180" width="10" height="10" transform="rotate(0,85,185)"></rect></g></g>
<g transform="translate(-1.245314122921581 -3.1594921313609143)"><g transform="rotate(23.77588637116764 95 185)"><rect stroke="black" fill="none" x="90" y="180" width="10" height="10" transform="rotate(0,95,185)"></rect></g></g>
<g transform="translate(-2.162320935586737 6.963116923413998)"><g transform="rotate(33.52845042227763 105 185)"><rect stroke="black" fill="none" x="100" y="180" width="10" height="10" transform="rotate(0,105,185)"></rect></g></g>
<g transform="translate(4.70165088309314 8.73281085774903)"><g transform="rotate(9.653947588259921 115 185)"><rect stroke="black" fill="none" x="110" y="180" width="10" height="10" transform="rotate(0,115,185)"></rect></g></g>
<g transform="translate(2.0845851746691917 24.255566989274563)"><g transform="rotate(12.94614301772544 5 195)"><rect stroke="black" fill="none" x="0" y="190" width="10" height="10" transform="rotate(0,5,195)"></rect></g></g>
<g transform="translate(6.999576744821104 19.689287447571935)"><g transform="rotate(23.44078800311231 15 195)"><rect stroke="black" fill="none" x="10" y="190" width="10" height="10" transform="rotate(0,15,195)"></rect></g></g>
<g transform="translate(-5.505277123609869 9.352565872384769)"><g transform="rotate(3.1728093474867665 25 195)"><rect stroke="black" fill="none" x="20" y="190" width="10" height="10" transform="rotate(0,25,195)"></rect></g></g>
<g transform="translate(-6.63556461247657 17.521053488206995)"><g transform="rotate(16.40400746736707 35 195)"><rect stroke="black" fill="none" x="30" y="190" width="10" height="10" transform="rotate(0,35,195)"></rect></g></g>
<g transform="translate(-1.9910670635843086 8.735530824640989)"><g transform="rotate(13.023091362149996 45 195)"><rect stroke="black" fill="none" x="40" y="190" width="10" height="10" transform="rotate(0,45,195)"></rect></g></g>
<g transform="translate(-4.172472887079759 13.390392960983952)"><g transform="rotate(32.11378058196712 55 195)"><rect stroke="black" fill="none" x="50" y="190" width="10" height="10" transform="rotate(0,55,195)"></rect></g></g>
<g transform="translate(3.1903220138848276 7.191264118952818)"><g transform="rotate(8.93290144641035 65 195)"><rect stroke="black" fill="none" x="60" y="190" width="10" height="10" transform="rotate(0,65,195)"></rect></g></g>
<g transform="translate(-7.30661760897377 15.208327708187628)"><g transform="rotate(12.838766724879429 75 195)"><rect stroke="black" fill="none" x="70" y="190" width="10" height="10" transform="rotate(0,75,195)"></rect></g></g>
<g transform="translate(3.973936505957626 11.231371998542585)"><g transform="rotate(21.56693834709206 85 195)"><rect stroke="black" fill="none" x="80" y="190" width="10" height="10" transform="rotate(0,85,195)"></rect></g></g>
<g transform="translate(1.9203914309634165 -2.2273230544702782)"><g transform="rotate(25.955852611454276 95 195)"><rect stroke="black" fill="none" x="90" y="190" width="10" height="10" transform="rotate(0,95,195)"></rect></g></g>
<g transform="translate(-1.166861895254244 23.004978908156268)"><g transform="rotate(36.40422928545219 105 195)"><rect stroke="black" fill="none" x="100" y="190" width="10" height="10" transform="rotate(0,105,195)"></rect></g></g>
<g transform="translate(3.4418264980172335 -0.9822203013283719)"><g transform="rotate(36.99820895058551 115 195)"><rect stroke="black" fill="none" x="110" y="190" width="10" height="10" transform="rotate(0,115,195)"></rect></g></g>
<g transform="translate(3.735518407913297 20.177255359361272)"><g transform="rotate(24.72078120966165 5 205)"><rect stroke="black" fill="none" x="0" y="200" width="10" height="10" transform="rotate(0,5,205)"></rect></g></g>
<g transform="translate(-7.046601591521454 18.643707373781705)"><g transform="rotate(0.7758578598493773 15 205)"><rect stroke="black" fill="none" x="10" y="200" width="10" height="10" transform="rotate(0,15,205)"></rect></g></g>
<g transform="translate(-1.577895813868155 -2.252928568635631)"><g transform="rotate(22.482751935154052 25 205)"><rect stroke="black" fill="none" x="20" y="200" width="10" height="10" transform="rotate(0,25,205)"></rect></g></g>
<g transform="translate(6.226962446578005 -6.235676878124959)"><g transform="rotate(3.2497370278267406 35 205)"><rect stroke="black" fill="none" x="30" y="200" width="10" height="10" transform="rotate(0,35,205)"></rect></g></g>
<g transform="translate(-6.168600965402456 -6.465431122054679)"><g transform="rotate(14.191129045569378 45 205)"><rect stroke="black" fill="none" x="40" y="200" width="10" height="10" transform="rotate(0,45,205)"></rect></g></g>
<g transform="translate(3.2841989971890833 25.299450638405194)"><g transform="rotate(28.72560753408547 55 205)"><rect stroke="black" fill="none" x="50" y="200" width="10" height="10" transform="rotate(0,55,205)"></rect></g></g>
<g transform="translate(-0.9398413700759267 -7.5261513395869555)"><g transform="rotate(9.717061652673506 65 205)"><rect stroke="black" fill="none" x="60" y="200" width="10" height="10" transform="rotate(0,65,205)"></rect></g></g>
<g transform="translate(6.784697370097536 20.21082902750283)"><g transform="rotate(34.74657260402634 75 205)"><rect stroke="black" fill="none" x="70" y="200" width="10" height="10" transform="rotate(0,75,205)"></rect></g></g>
<g transform="translate(-8.61712179779375 12.135403839536831)"><g transform="rotate(0.1785950305546045 85 205)"><rect stroke="black" fill="none" x="80" y="200" width="10" height="10" transform="rotate(0,85,205)"></rect></g></g>
<g transform="translate(-1.109379810015934 6.76643366045835)"><g transform="rotate(20.78210850753558 95 205)"><rect stroke="black" fill="none" x="90" y="200" width="10" height="10" transform="rotate(0,95,205)"></rect></g></g>
<g transform="translate(4.617070391684184 8.901586048406664)"><g transform="rotate(12.362505118504131 105 205)"><rect stroke="black" fill="none" x="100" y="200" width="10" height="10" transform="rotate(0,105,205)"></rect></g></g>
<g transform="translate(-4.785754072379465 7.274696649562104)"><g transform="rotate(6.2305184271441085 115 205)"><rect stroke="black" fill="none" x="110" y="200" width="10" height="10" transform="rotate(0,115,205)"></rect></g></g>
<g transform="translate(-7.011582955144379 -5.114782744153782)"><g transform="rotate(39.105170384921365 5 215)"><rect stroke="black" fill="none" x="0" y="210" width="10" height="10" transform="rotate(0,5,215)"></rect></g></g>
<g transform="translate(5.9195686640061105 23.22083000488798)"><g transform="rotate(35.9227374283459 15 215)"><rect stroke="black" fill="none" x="10" y="210" width="10" height="10" transform="rotate(0,15,215)"></rect></g></g>
<g transform="translate(5.8386637887656025 -4.9175800725563885)"><g transform="rotate(33.17661891875331 25 215)"><rect stroke="black" fill="none" x="20" y="210" width="10" height="10" transform="rotate(0,25,215)"></rect></g></g>
<g transform="translate(2.3509536867882854 26.256751824789546)"><g transform="rotate(28.09229042994119 35 215)"><rect stroke="black" fill="none" x="30" y="210" width="10" height="10" transform="rotate(0,35,215)"></rect></g></g>
<g transform="translate(-9.036608649470836 1.5375836598186794)"><g transform="rotate(4.708987287498855 45 215)"><rect stroke="black" fill="none" x="40" y="210" width="10" height="10" transform="rotate(0,45,215)"></rect></g></g>
<g transform="translate(8.417211283171142 -0.27851562961872567)"><g transform="rotate(37.32750808117408 55 215)"><rect stroke="black" fill="none" x="50" y="210" width="10" height="10" transform="rotate(0,55,215)"></rect></g></g>
<g transform="translate(-7.985439152994764 10.418439323251377)"><g transform="rotate(2.3293009319785742 65 215)"><rect stroke="black" fill="none" x="60" y="210" width="10" height="10" transform="rotate(0,65,215)"></rect></g></g>
<g transform="translate(3.686294241313515 16.78432726639501)"><g transform="rotate(16.819553779068915 75 215)"><rect stroke="black" fill="none" x="70" y="210" width="10" height="10" transform="rotate(0,75,215)"></rect></g></g>
<g transform="translate(-4.288320539403585 14.224075457568741)"><g transform="rotate(11.745162131921244 85 215)"><rect stroke="black" fill="none" x="80" y="210" width="10" height="10" transform="rotate(0,85,215)"></rect></g></g>
<g transform="translate(6.421514211340742 12.43892128463295)"><g transform="rotate(35.47527112069694 95 215)"><rect stroke="black" fill="none" x="90" y="210" width="10" height="10" transform="rotate(0,95,215)"></rect></g></g>
<g transform="translate(-8.265583108587283 25.752909718967423)"><g transform="rotate(22.359693468006782 105 215)"><rect stroke="black" fill="none" x="100" y="210" width="10" height="10" transform="rotate(0,105,215)"></rect></g></g>
<g transform="translate(-3.4027965943135605 14.155892092451737)"><g transform="rotate(32.64050058106828 115 215)"><rect stroke="black" fill="none" x="110" y="210" width="10" height="10" transform="rotate(0,115,215)"></rect></g></g>
<g transform="translate(-3.289683510670441 9.535097537497766)"><g transform="rotate(15.04384529430358 5 225)"><rect stroke="black" fill="none" x="0" y="220" width="10" height="10" transform="rotate(0,5,225)"></rect></g></g>
<g transform="translate(0.22430095350506285 3.3248959492250663)"><g transform="rotate(17.787733188224674 15 225)"><rect stroke="black" fill="none" x="10" y="220" width="10" height="10" transform="rotate(0,15,225)"></rect></g></g>
<g transform="translate(-0.8240233664762293 -5.448591857124341)"><g transform="rotate(17.931577201986876 25 225)"><rect stroke="black" fill="none" x="20" y="220" width="10" height="10" transform="rotate(0,25,225)"></rect></g></g>
<g transform="translate(-8.152861772872248 3.27279489102542)"><g transform="rotate(41.233301890746944 35 225)"><rect stroke="black" fill="none" x="30" y="220" width="10" height="10" transform="rotate(0,35,225)"></rect></g></g>
<g transform="translate(6.758618049391966 5.773166592116301)"><g transform="rotate(40.12436722839474 45 225)"><rect stroke="black" fill="none" x="40" y="220" width="10" height="10" transform="rotate(0,45,225)"></rect></g></g>
<g transform="translate(0.7689093361897239 19.356170121030708)"><g transform="rotate(26.79489318362597 55 225)"><rect stroke="black" fill="none" x="50" y="220" width="10" height="10" transform="rotate(0,55,225)"></rect></g></g>
<g transform="translate(-4.540762673369253 4.976994814840674)"><g transform="rotate(1.6574369826031214 65 225)"><rect stroke="black" fill="none" x="60" y="220" width="10" height="10" transform="rotate(0,65,225)"></rect></g></g>
<g transform="translate(0.27408552529461083 -6.949044803605541)"><g transform="rotate(19.15368184454849 75 225)"><rect stroke="black" fill="none" x="70" y="220" width="10" height="10" transform="rotate(0,75,225)"></rect></g></g>
<g transform="translate(6.5303429784783305 14.61976956827408)"><g transform="rotate(19.093663743265527 85 225)"><rect stroke="black" fill="none" x="80" y="220" width="10" height="10" transform="rotate(0,85,225)"></rect></g></g>
<g transform="translate(4.203058685219727 6.847104867553529)"><g transform="rotate(26.871002278344093 95 225)"><rect stroke="black" fill="none" x="90" y="220" width="10" height="10" transform="rotate(0,95,225)"></rect></g></g>
<g transform="translate(9.476455131763089 5.856342743062738)"><g transform="rotate(29.792369157239516 105 225)"><rect stroke="black" fill="none" x="100" y="220" width="10" height="10" transform="rotate(0,105,225)"></rect></g></g>
<g transform="translate(9.373927666096765 -7.7897116462352916)"><g transform="rotate(14.089631957196758 115 225)"><rect stroke="black" fill="none" x="110" y="220" width="10" height="10" transform="rotate(0,115,225)"></rect></g></g>
<g transform="translate(9.592642593838686 2.967061970390205)"><g transform="rotate(22.239212206261268 5 235)"><rect stroke="black" fill="none" x="0" y="230" width="10" height="10" transform="rotate(0,5,235)"></rect></g></g>
<g transform="translate(6.072481115362965 4.571494522955376)"><g transform="rotate(25.767691994065245 15 235)"><rect stroke="black" fill="none" x="10" y="230" width="10" height="10" transform="rotate(0,15,235)"></rect></g></g>
<g transform="translate(-8.790103725206826 18.57620679616827)"><g transform="rotate(37.3178203806939 25 235)"><rect stroke="black" fill="none" x="20" y="230" width="10" height="10" transform="rotate(0,25,235)"></rect></g></g>
<g transform="translate(-9.31344537963045 -6.242316969242139)"><g transform="rotate(38.579048889500626 35 235)"><rect stroke="black" fill="none" x="30" y="230" width="10" height="10" transform="rotate(0,35,235)"></rect></g></g>
<g transform="translate(-8.572041494469449 20.761318866645087)"><g transform="rotate(28.780928662059445 45 235)"><rect stroke="black" fill="none" x="40" y="230" width="10" height="10" transform="rotate(0,45,235)"></rect></g></g>
<g transform="translate(-0.4179816111620589 -7.281212739259586)"><g transform="rotate(15.719289513347887 55 235)"><rect stroke="black" fill="none" x="50" y="230" width="10" height="10" transform="rotate(0,55,235)"></rect></g></g>
<g transform="translate(-8.367018310929073 11.185060720597399)"><g transform="rotate(27.53998570930629 65 235)"><rect stroke="black" fill="none" x="60" y="230" width="10" height="10" transform="rotate(0,65,235)"></rect></g></g>
<g transform="translate(-7.463181785067015 28.006701715672875)"><g transform="rotate(38.09277614952587 75 235)"><rect stroke="black" fill="none" x="70" y="230" width="10" height="10" transform="rotate(0,75,235)"></rect></g></g>
<g transform="translate(-7.349984175821782 13.201192437760426)"><g transform="rotate(25.5241071243374 85 235)"><rect stroke="black" fill="none" x="80" y="230" width="10" height="10" transform="rotate(0,85,235)"></rect></g></g>
<g transform="translate(8.04569151020819 12.528892239338752)"><g transform="rotate(34.98527987906613 95 235)"><rect stroke="black" fill="none" x="90" y="230" width="10" height="10" transform="rotate(0,95,235)"></rect></g></g>
<g transform="translate(0.39199801404093115 29.737353584629403)"><g transform="rotate(32.958135649122696 105 235)"><rect stroke="black" fill="none" x="100" y="230" width="10" height="10" transform="rotate(0,105,235)"></rect></g></g>
<g transform="translate(-9.097295099673824 15.844372345957925)"><g transform="rotate(38.58647599456494 115 235)"><rect stroke="black" fill="none" x="110" y="230" width="10" height="10" transform="rotate(0,115,235)"></rect></g></g>
</svg>
