<svg xmlns="http://www.w3.org/2000/svg" width="100%" height="100%" viewBox="0 0 300 300">
<g transform="translate(0 0)"><g transform="rotate(0 5 5)"><rect stroke="black" fill="none" x="0" y="0" width="10" height="10" transform="rotate(0,5,5)"></rect></g></g>
<g transform="translate(0 0)"><g transform="rotate(0 15 5)"><rect stroke="black" fill="none" x="10" y="0" width="10" height="10" transform="rotate(0,15,5)"></rect></g></g>
<g transform="translate(0 0)"><g transform="rotate(0 25 5)"><rect stroke="black" fill="none" x="20" y="0" width="10" height="10" transform="rotate(0,25,5)"></rect></g></g>
<g transform="translate(0 0)"><g transform="rotate(0 35 5)"><rect stroke="black" fill="none" x="30" y="0" width="10" height="10" transform="rotate(0,35,5)"></rect></g></g>
<g transform="translate(0 0)"><g transform="rotate(0 45 5)"><rect stroke="black" fill="none" x="40" y="0" width="10" height="10" transform="rotate(0,45,5)"></rect></g></g>
<g transform="translate(0 0)"><g transform="rotate(0 55 5)"><rect stroke="black" fill="none" x="50" y="0" width="10" height="10" transform="rotate(0,55,5)"></rect></g></g>
<g transform="translate(0 0)"><g transform="rotate(0 65 5)"><rect stroke="black" fill="none" x="60" y="0" width="10" height="10" transform="rotate(0,65,5)"></rect></g></g>
<g transform="translate(0 0)"><g transform="rotate(0 75 5)"><rect stroke="black" fill="none" x="70" y="0" width="10" height="10" transform="rotate(0,75,5)"></rect></g></g>
<g transform="translate(0 0)"><g transform="rotate(0 85 5)"><rect stroke="black" fill="none" x="80" y="0" width="10" height="10" transform="rotate(0,85,5)"></rect></g></g>
<g transform="translate(0 0)"><g transform="rotate(0 95 5)"><rect stroke="black" fill="none" x="90" y="0" width="10" height="10" transform="rotate(0,95,5)"></rect></g></g>
<g transform="translate(0 0)"><g transform="rotate(0 105 5)"><rect stroke="black" fill="none" x="100" y="0" width="10" height="10" transform="rotate(0,105,5)"></rect></g></g>
<g transform="translate(0 0)"><g transform="rotate(0 115 5)"><rect stroke="black" fill="none" x="110" y="0" width="10" height="10" transform="rotate(0,115,5)"></rect></g></g>
<g transform="translate(-0.28348703351918486 0.7246538942797627)"><g transform="rotate(0.6655492965627025 5 15)"><rect stroke="black" fill="none" x="0" y="10" width="10" height="10" transform="rotate(0,5,15)"></rect></g></g>
<g transform="translate(-0.20344075408973322 -0.16318277494709604)"><g transform="rotate(0.6537018985838535 15 15)"><rect stroke="black" fill="none" x="10" y="10" width="10" height="10" transform="rotate(0,15,15)"></rect></g></g>
<g transform="translate(0.34358983827260486 -0.3183631167249147)"><g transform="rotate(1.7006106031960049 25 15)"><rect stroke="black" fill="none" x="20" y="10" width="10" height="10" transform="rotate(0,25,15)"></rect></g></g>
<g transform="translate(-0.19058357702826034 0.7038452406413573)"><g transform="rotate(0.7687166420735622 35 15)"><rect stroke="black" fill="none" x="30" y="10" width="10" height="10" transform="rotate(0,35,15)"></rect></g></g>
<g transform="translate(0.2795820488068311 0.5792580972022476)"><g transform="rotate(1.9485177825421385 45 15)"><rect stroke="black" fill="none" x="40" y="10" width="10" height="10" transform="rotate(0,45,15)"></rect></g></g>
<g transform="translate(0.1673595581449811 0.97585277653636)"><g transform="rotate(0.4736600475887912 55 15)"><rect stroke="black" fill="none" x="50" y="10" width="10" height="10" transform="rotate(0,55,15)"></rect></g></g>
<g transform="translate(-0.10452197672564978 1.0123976692093557)"><g transform="rotate(1.8946338920548953 65 15)"><rect stroke="black" fill="none" x="60" y="10" width="10" height="10" transform="rotate(0,65,15)"></rect></g></g>
<g transform="translate(-0.16658980600235257 0.11233929975784435)"><g transform="rotate(1.83236020567156 75 15)"><rect stroke="black" fill="none" x="70" y="10" width="10" height="10" transform="rotate(0,75,15)"></rect></g></g>
<g transform="translate(0.29855417798966605 0.7344970775043489)"><g transform="rotate(1.1567764954538637 85 15)"><rect stroke="black" fill="none" x="80" y="10" width="10" height="10" transform="rotate(0,85,15)"></rect></g></g>
<g transform="translate(-0.03873969886933881 1.051512707423229)"><g transform="rotate(0.8748789419672918 95 15)"><rect stroke="black" fill="none" x="90" y="10" width="10" height="10" transform="rotate(0,95,15)"></rect></g></g>
<g transform="translate(0.20441945961710878 1.043989611221693)"><g transform="rotate(1.6422928265897285 105 15)"><rect stroke="black" fill="none" x="100" y="10" width="10" height="10" transform="rotate(0,105,15)"></rect></g></g>
<g transform="translate(0.42191206978989665 0.1857959718070537)"><g transform="rotate(1.491709051056092 115 15)"><rect stroke="black" fill="none" x="110" y="10" width="10" height="10" transform="rotate(0,115,15)"></rect></g></g>
<g transform="translate(-0.4979092130917221 1.9982528513149074)"><g transform="rotate(3.8617909989442594 5 25)"><rect stroke="black" fill="none" x="0" y="20" width="10" height="10" transform="rotate(0,5,25)"></rect></g></g>
<g transform="translate(0.3294674737361841 -0.7920017526767165)"><g transform="rotate(2.40786366208382 15 25)"><rect stroke="black" fill="none" x="10" y="20" width="10" height="10" transform="rotate(0,15,25)"></rect></g></g>
<g transform="translate(-0.3744110625642913 0.17172745658795419)"><g transform="rotate(3.4831958200091404 25 25)"><rect stroke="black" fill="none" x="20" y="20" width="10" height="10" transform="rotate(0,25,25)"></rect></g></g>
<g transform="translate(-0.8066040899827227 0.23306819645879961)"><g transform="rotate(0.477870039053858 35 25)"><rect stroke="black" fill="none" x="30" y="20" width="10" height="10" transform="rotate(0,35,25)"></rect></g></g>
<g transform="translate(-0.08930994726594044 0.22021412435590848)"><g transform="rotate(2.1832747815436093 45 25)"><rect stroke="black" fill="none" x="40" y="20" width="10" height="10" transform="rotate(0,45,25)"></rect></g></g>
<g transform="translate(0.8219265462521225 1.09683322326768)"><g transform="rotate(3.5204764210465394 55 25)"><rect stroke="black" fill="none" x="50" y="20" width="10" height="10" transform="rotate(0,55,25)"></rect></g></g>
<g transform="translate(-0.04726766302998542 0.7965074786459826)"><g transform="rotate(0.29601865828978174 65 25)"><rect stroke="black" fill="none" x="60" y="20" width="10" height="10" transform="rotate(0,65,25)"></rect></g></g>
<g transform="translate(-0.43159829215445306 1.3917019417331051)"><g transform="rotate(2.371743591536556 75 25)"><rect stroke="black" fill="none" x="70" y="20" width="10" height="10" transform="rotate(0,75,25)"></rect></g></g>
<g transform="translate(-0.8424673363946168 0.9853999160089347)"><g transform="rotate(0.12850033344964432 85 25)"><rect stroke="black" fill="none" x="80" y="20" width="10" height="10" transform="rotate(0,85,25)"></rect></g></g>
<g transform="translate(-0.18180643502370242 -0.03354814343841073)"><g transform="rotate(0.905441434250545 95 25)"><rect stroke="black" fill="none" x="90" y="20" width="10" height="10" transform="rotate(0,95,25)"></rect></g></g>
<g transform="translate(-0.5886424482895212 1.6414866765147704)"><g transform="rotate(2.4801691945423134 105 25)"><rect stroke="black" fill="none" x="100" y="20" width="10" height="10" transform="rotate(0,105,25)"></rect></g></g>
<g transform="translate(0.7493372305345943 -0.690148866466586)"><g transform="rotate(2.752972864600473 115 25)"><rect stroke="black" fill="none" x="110" y="20" width="10" height="10" transform="rotate(0,115,25)"></rect></g></g>
<g transform="translate(-0.5536347215586568 3.053309717552468)"><g transform="rotate(5.135949475304031 5 35)"><rect stroke="black" fill="none" x="0" y="30" width="10" height="10" transform="rotate(0,5,35)"></rect></g></g>
<g transform="translate(-0.8583340501655203 2.4298986731595136)"><g transform="rotate(2.859165932448877 15 35)"><rect stroke="black" fill="none" x="10" y="30" width="10" height="10" transform="rotate(0,15,35)"></rect></g></g>
<g transform="translate(-0.02970675281666635 0.6973097320041508)"><g transform="rotate(0.26242865182979086 25 35)"><rect stroke="black" fill="none" x="20" y="30" width="10" height="10" transform="rotate(0,25,35)"></rect></g></g>
<g transform="translate(-0.02235105755104594 0.9258088635721422)"><g transform="rotate(0.24222756849840751 35 35)"><rect stroke="black" fill="none" x="30" y="30" width="10" height="10" transform="rotate(0,35,35)"></rect></g></g>
<g transform="translate(0.1956729943320108 2.2872912480815155)"><g transform="rotate(1.864171998289288 45 35)"><rect stroke="black" fill="none" x="40" y="30" width="10" height="10" transform="rotate(0,45,35)"></rect></g></g>
<g transform="translate(1.1653632152201912 1.139343972601794)"><g transform="rotate(2.2944337183615113 55 35)"><rect stroke="black" fill="none" x="50" y="30" width="10" height="10" transform="rotate(0,55,35)"></rect></g></g>
<g transform="translate(0.2568867345208028 0.6067196729214182)"><g transform="rotate(5.38788564345932 65 35)"><rect stroke="black" fill="none" x="60" y="30" width="10" height="10" transform="rotate(0,65,35)"></rect></g></g>
<g transform="translate(0.1619952687053774 -0.5623532098103842)"><g transform="rotate(3.580302484759545 75 35)"><rect stroke="black" fill="none" x="70" y="30" width="10" height="10" transform="rotate(0,75,35)"></rect></g></g>
<g transform="translate(1.1287247904577722 3.2338520294314974)"><g transform="rotate(2.883204785898359 85 35)"><rect stroke="black" fill="none" x="80" y="30" width="10" height="10" transform="rotate(0,85,35)"></rect></g></g>
<g transform="translate(1.0504666783132324 2.6221800397631503)"><g transform="rotate(1.9720787993416145 95 35)"><rect stroke="black" fill="none" x="90" y="30" width="10" height="10" transform="rotate(0,95,35)"></rect></g></g>
<g transform="translate(-0.8352931373962855 3.81577592334537)"><g transform="rotate(3.215300288793002 105 35)"><rect stroke="black" fill="none" x="100" y="30" width="10" height="10" transform="rotate(0,105,35)"></rect></g></g>
<g transform="translate(0.663846123346622 0.23721633148754884)"><g transform="rotate(3.2990484895876184 115 35)"><rect stroke="black" fill="none" x="110" y="30" width="10" height="10" transform="rotate(0,115,35)"></rect></g></g>
<g transform="translate(-0.9238551122341815 3.991545648396948)"><g transform="rotate(3.4268141663597684 5 45)"><rect stroke="black" fill="none" x="0" y="40" width="10" height="10" transform="rotate(0,5,45)"></rect></g></g>
<g transform="translate(-0.4743039716773878 -0.9209835327127922)"><g transform="rotate(7.3881043117752245 15 45)"><rect stroke="black" fill="none" x="10" y="40" width="10" height="10" transform="rotate(0,15,45)"></rect></g></g>
<g transform="translate(-1.5441905786281904 4.821275406715575)"><g transform="rotate(5.910537775669672 25 45)"><rect stroke="black" fill="none" x="20" y="40" width="10" height="10" transform="rotate(0,25,45)"></rect></g></g>
<g transform="translate(0.3490992171559337 1.4444373789554763)"><g transform="rotate(7.288330077661278 35 45)"><rect stroke="black" fill="none" x="30" y="40" width="10" height="10" transform="rotate(0,35,45)"></rect></g></g>
<g transform="translate(-0.4078456888812758 4.218632561856255)"><g transform="rotate(3.134798509204758 45 45)"><rect stroke="black" fill="none" x="40" y="40" width="10" height="10" transform="rotate(0,45,45)"></rect></g></g>
<g transform="translate(-0.25437722869001567 3.962960617626857)"><g transform="rotate(5.282845754077772 55 45)"><rect stroke="black" fill="none" x="50" y="40" width="10" height="10" transform="rotate(0,55,45)"></rect></g></g>
<g transform="translate(-1.459205398483621 1.2497687021593504)"><g transform="rotate(7.369865268516772 65 45)"><rect stroke="black" fill="none" x="60" y="40" width="10" height="10" transform="rotate(0,65,45)"></rect></g></g>
<g transform="translate(0.5293215581653892 1.8273904447450715)"><g transform="rotate(1.5303965055240845 75 45)"><rect stroke="black" fill="none" x="70" y="40" width="10" height="10" transform="rotate(0,75,45)"></rect></g></g>
<g transform="translate(0.7376229116815776 1.4997919303266556)"><g transform="rotate(1.4894763576608647 85 45)"><rect stroke="black" fill="none" x="80" y="40" width="10" height="10" transform="rotate(0,85,45)"></rect></g></g>
<g transform="translate(-0.8448584788618461 3.171591852206027)"><g transform="rotate(4.736135970368261 95 45)"><rect stroke="black" fill="none" x="90" y="40" width="10" height="10" transform="rotate(0,95,45)"></rect></g></g>
<g transform="translate(1.6767502130121887 0.2980111135286634)"><g transform="rotate(4.20972185451827 105 45)"><rect stroke="black" fill="none" x="100" y="40" width="10" height="10" transform="rotate(0,105,45)"></rect></g></g>
<g transform="translate(1.2118568662876357 -1.4712891431422586)"><g transform="rotate(2.8378062743130577 115 45)"><rect stroke="black" fill="none" x="110" y="40" width="10" height="10" transform="rotate(0,115,45)"></rect></g></g>
<g transform="translate(-0.39699929637022335 2.467992348044392)"><g transform="rotate(4.216082644464319 5 55)"><rect stroke="black" fill="none" x="0" y="50" width="10" height="10" transform="rotate(0,5,55)"></rect></g></g>
<g transform="translate(-0.39380754076155977 0.5557562440888622)"><g transform="rotate(6.7508314090335455 15 55)"><rect stroke="black" fill="none" x="10" y="50" width="10" height="10" transform="rotate(0,15,55)"></rect></g></g>
<g transform="translate(-1.3931501403932787 5.92745165473428)"><g transform="rotate(0.74428853676206 25 55)"><rect stroke="black" fill="none" x="20" y="50" width="10" height="10" transform="rotate(0,25,55)"></rect></g></g>
<g transform="translate(1.8349659279997574 1.065353763947893)"><g transform="rotate(5.551045431669971 35 55)"><rect stroke="black" fill="none" x="30" y="50" width="10" height="10" transform="rotate(0,35,55)"></rect></g></g>
<g transform="translate(2.15825555138513 6.080915089242111)"><g transform="rotate(7.544412246315467 45 55)"><rect stroke="black" fill="none" x="40" y="50" width="10" height="10" transform="rotate(0,45,55)"></rect></g></g>
<g transform="translate(-0.8213777053044171 2.9146543230975084)"><g transform="rotate(2.13795102540509 55 55)"><rect stroke="black" fill="none" x="50" y="50" width="10" height="10" transform="rotate(0,55,55)"></rect></g></g>
<g transform="translate(-1.7968347408374994 2.9884877404139534)"><g transform="rotate(7.077945675707124 65 55)"><rect stroke="black" fill="none" x="60" y="50" width="10" height="10" transform="rotate(0,65,55)"></rect></g></g>
<g transform="translate(0.16740062455167992 5.736647053172036)"><g transform="rotate(5.760818639165162 75 55)"><rect stroke="black" fill="none" x="70" y="50" width="10" height="10" transform="rotate(0,75,55)"></rect></g></g>
<g transform="translate(0.926293718310411 -0.23718676789463622)"><g transform="rotate(0.25579573523253446 85 55)"><rect stroke="black" fill="none" x="80" y="50" width="10" height="10" transform="rotate(0,85,55)"></rect></g></g>
<g transform="translate(1.9028297976147854 5.958924810890847)"><g transform="rotate(1.1106027201938231 95 55)"><rect stroke="black" fill="none" x="90" y="50" width="10" height="10" transform="rotate(0,95,55)"></rect></g></g>
<g transform="translate(1.2859447311115502 3.057423947456992)"><g transform="rotate(1.8721780393688214 105 55)"><rect stroke="black" fill="none" x="100" y="50" width="10" height="10" transform="rotate(0,105,55)"></rect></g></g>
<g transform="translate(-1.624800900411755 0.31320713621666796)"><g transform="rotate(6.617070696924119 115 55)"><rect stroke="black" fill="none" x="110" y="50" width="10" height="10" transform="rotate(0,115,55)"></rect></g></g>
<g transform="translate(-0.6642519754908278 4.406316731469281)"><g transform="rotate(7.861301253711 5 65)"><rect stroke="black" fill="none" x="0" y="60" width="10" height="10" transform="rotate(0,5,65)"></rect></g></g>
<g transform="translate(1.400559198511485 3.8258290021185175)"><g transform="rotate(3.005556356193107 15 65)"><rect stroke="black" fill="none" x="10" y="60" width="10" height="10" transform="rotate(0,15,65)"></rect></g></g>
<g transform="translate(2.0632272875084334 -0.884251198997867)"><g transform="rotate(7.337734716287099 25 65)"><rect stroke="black" fill="none" x="20" y="60" width="10" height="10" transform="rotate(0,25,65)"></rect></g></g>
<g transform="translate(-2.6077776473100003 0.07930629680508883)"><g transform="rotate(1.2773975051695945 35 65)"><rect stroke="black" fill="none" x="30" y="60" width="10" height="10" transform="rotate(0,35,65)"></rect></g></g>
<g transform="translate(-0.22061545644917047 -1.7798460849757993)"><g transform="rotate(7.77229235377236 45 65)"><rect stroke="black" fill="none" x="40" y="60" width="10" height="10" transform="rotate(0,45,65)"></rect></g></g>
<g transform="translate(-2.4005600346294953 -0.4530427733729465)"><g transform="rotate(9.194431640196859 55 65)"><rect stroke="black" fill="none" x="50" y="60" width="10" height="10" transform="rotate(0,55,65)"></rect></g></g>
<g transform="translate(0.19598228783114413 6.417719488798995)"><g transform="rotate(4.296715529721779 65 65)"><rect stroke="black" fill="none" x="60" y="60" width="10" height="10" transform="rotate(0,65,65)"></rect></g></g>
<g transform="translate(-0.5233417373606652 2.4993556045116643)"><g transform="rotate(0.8798977188065257 75 65)"><rect stroke="black" fill="none" x="70" y="60" width="10" height="10" transform="rotate(0,75,65)"></rect></g></g>
<g transform="translate(1.9007948270370747 4.531991350735522)"><g transform="rotate(9.105110230244572 85 65)"><rect stroke="black" fill="none" x="80" y="60" width="10" height="10" transform="rotate(0,85,65)"></rect></g></g>
<g transform="translate(1.4513300270206422 0.7368118617966055)"><g transform="rotate(7.796948885160136 95 65)"><rect stroke="black" fill="none" x="90" y="60" width="10" height="10" transform="rotate(0,95,65)"></rect></g></g>
<g transform="translate(1.9864458378231022 1.5078416909781431)"><g transform="rotate(1.963126568079855 105 65)"><rect stroke="black" fill="none" x="100" y="60" width="10" height="10" transform="rotate(0,105,65)"></rect></g></g>
<g transform="translate(1.3489375934175407 -2.34097659710832)"><g transform="rotate(2.758155998832529 115 65)"><rect stroke="black" fill="none" x="110" y="60" width="10" height="10" transform="rotate(0,115,65)"></rect></g></g>
<g transform="translate(2.3085211155950427 3.7626300519472577)"><g transform="rotate(10.633326067094576 5 75)"><rect stroke="black" fill="none" x="0" y="70" width="10" height="10" transform="rotate(0,5,75)"></rect></g></g>
<g transform="translate(-1.112376486552965 -2.071600831853668)"><g transform="rotate(1.511415454740997 15 75)"><rect stroke="black" fill="none" x="10" y="70" width="10" height="10" transform="rotate(0,15,75)"></rect></g></g>
<g transform="translate(0.2814234280721717 2.4972260160582422)"><g transform="rotate(10.432863779868063 25 75)"><rect stroke="black" fill="none" x="20" y="70" width="10" height="10" transform="rotate(0,25,75)"></rect></g></g>
<g transform="translate(-2.8778744688753233 3.304020251401818)"><g transform="rotate(2.9729867397372405 35 75)"><rect stroke="black" fill="none" x="30" y="70" width="10" height="10" transform="rotate(0,35,75)"></rect></g></g>
<g transform="translate(2.5841366065838187 7.440715389287878)"><g transform="rotate(12.671097806714085 45 75)"><rect stroke="black" fill="none" x="40" y="70" width="10" height="10" transform="rotate(0,45,75)"></rect></g></g>
<g transform="translate(-0.8271852468350289 -0.8339332425571202)"><g transform="rotate(11.366056809738273 55 75)"><rect stroke="black" fill="none" x="50" y="70" width="10" height="10" transform="rotate(0,55,75)"></rect></g></g>
<g transform="translate(-1.4260072630932858 2.4087518304890985)"><g transform="rotate(5.377521025089292 65 75)"><rect stroke="black" fill="none" x="60" y="70" width="10" height="10" transform="rotate(0,65,75)"></rect></g></g>
<g transform="translate(-2.422724842266492 -1.1976994756365493)"><g transform="rotate(2.719748096979357 75 75)"><rect stroke="black" fill="none" x="70" y="70" width="10" height="10" transform="rotate(0,75,75)"></rect></g></g>
<g transform="translate(2.0911891492962846 -1.7366507442665338)"><g transform="rotate(10.468266842101885 85 75)"><rect stroke="black" fill="none" x="80" y="70" width="10" height="10" transform="rotate(0,85,75)"></rect></g></g>
<g transform="translate(-1.0336854220721694 7.051150902226772)"><g transform="rotate(7.999820949465592 95 75)"><rect stroke="black" fill="none" x="90" y="70" width="10" height="10" transform="rotate(0,95,75)"></rect></g></g>
<g transform="translate(-0.8836973822688243 4.547380514539561)"><g transform="rotate(12.29010025469878 105 75)"><rect stroke="black" fill="none" x="100" y="70" width="10" height="10" transform="rotate(0,105,75)"></rect></g></g>
<g transform="translate(-1.7106735065266054 -0.9165348866225944)"><g transform="rotate(9.658652697731238 115 75)"><rect stroke="black" fill="none" x="110" y="70" width="10" height="10" transform="rotate(0,115,75)"></rect></g></g>
<g transform="translate(-2.1941374147247332 -0.5896970341418308)"><g transform="rotate(7.694248965690683 5 85)"><rect stroke="black" fill="none" x="0" y="80" width="10" height="10" transform="rotate(0,5,85)"></rect></g></g>
<g transform="translate(-0.5218518915786463 7.10293778848609)"><g transform="rotate(14.34465367787559 15 85)"><rect stroke="black" fill="none" x="10" y="80" width="10" height="10" transform="rotate(0,15,85)"></rect></g></g>
<g transform="translate(-3.227888856678849 -0.8998333443405695)"><g transform="rotate(12.617643205229701 25 85)"><rect stroke="black" fill="none" x="20" y="80" width="10" height="10" transform="rotate(0,25,85)"></rect></g></g>
<g transform="translate(-0.17398093588441466 -0.4150956051488115)"><g transform="rotate(13.33162811217035 35 85)"><rect stroke="black" fill="none" x="30" y="80" width="10" height="10" transform="rotate(0,35,85)"></rect></g></g>
<g transform="translate(-0.8037840800979583 -2.1707383411986956)"><g transform="rotate(11.91490315102398 45 85)"><rect stroke="black" fill="none" x="40" y="80" width="10" height="10" transform="rotate(0,45,85)"></rect></g></g>
<g transform="translate(-2.924460535870289 6.6412028573730915)"><g transform="rotate(10.197060074892578 55 85)"><rect stroke="black" fill="none" x="50" y="80" width="10" height="10" transform="rotate(0,55,85)"></rect></g></g>
<g transform="translate(1.794641939332457 -2.1554974475852475)"><g transform="rotate(5.694419757416539 65 85)"><rect stroke="black" fill="none" x="60" y="80" width="10" height="10" transform="rotate(0,65,85)"></rect></g></g>
<g transform="translate(-1.9561164895977743 2.9551044821039185)"><g transform="rotate(2.2112470154966632 75 85)"><rect stroke="black" fill="none" x="70" y="80" width="10" height="10" transform="rotate(0,75,85)"></rect></g></g>
<g transform="translate(-1.7882445548637231 1.4587052135103256)"><g transform="rotate(12.487321896201072 85 85)"><rect stroke="black" fill="none" x="80" y="80" width="10" height="10" transform="rotate(0,85,85)"></rect></g></g>
<g transform="translate(-0.6570841473314681 -3.383745693570593)"><g transform="rotate(5.916877627190029 95 85)"><rect stroke="black" fill="none" x="90" y="80" width="10" height="10" transform="rotate(0,95,85)"></rect></g></g>
<g transform="translate(-1.4464221665156405 6.150348392760877)"><g transform="rotate(8.127707365761179 105 85)"><rect stroke="black" fill="none" x="100" y="80" width="10" height="10" transform="rotate(0,105,85)"></rect></g></g>
<g transform="translate(-3.220997247437225 2.862112764994865)"><g transform="rotate(13.245627848510752 115 85)"><rect stroke="black" fill="none" x="110" y="80" width="10" height="10" transform="rotate(0,115,85)"></rect></g></g>
<g transform="translate(-0.3857761040992731 6.2085314046791265)"><g transform="rotate(4.045217725931831 5 95)"><rect stroke="black" fill="none" x="0" y="90" width="10" height="10" transform="rotate(0,5,95)"></rect></g></g>
<g transform="translate(-2.337572442964617 8.492773230456299)"><g transform="rotate(15.536074479756504 15 95)"><rect stroke="black" fill="none" x="10" y="90" width="10" height="10" transform="rotate(0,15,95)"></rect></g></g>
<g transform="translate(-0.4611283242292661 -3.368143235917025)"><g transform="rotate(8.71458211772307 25 95)"><rect stroke="black" fill="none" x="20" y="90" width="10" height="10" transform="rotate(0,25,95)"></rect></g></g>
<g transform="translate(3.727450262941645 5.2405714870210875)"><g transform="rotate(4.833229924479049 35 95)"><rect stroke="black" fill="none" x="30" y="90" width="10" height="10" transform="rotate(0,35,95)"></rect></g></g>
<g transform="translate(-2.9035895758882386 -1.2954093624727268)"><g transform="rotate(8.508120727415957 45 95)"><rect stroke="black" fill="none" x="40" y="90" width="10" height="10" transform="rotate(0,45,95)"></rect></g></g>
<g transform="translate(-3.6038201401966004 2.9161477852703714)"><g transform="rotate(14.84427033632565 55 95)"><rect stroke="black" fill="none" x="50" y="90" width="10" height="10" transform="rotate(0,55,95)"></rect></g></g>
<g transform="translate(-0.8947483152578268 -3.2812302674928877)"><g transform="rotate(14.8284454819782 65 95)"><rect stroke="black" fill="none" x="60" y="90" width="10" height="10" transform="rotate(0,65,95)"></rect></g></g>
<g transform="translate(-1.2047129018793572 -2.0588364610546446)"><g transform="rotate(9.746573477252184 75 95)"><rect stroke="black" fill="none" x="70" y="90" width="10" height="10" transform="rotate(0,75,95)"></rect></g></g>
<g transform="translate(-1.546087004357918 -2.790000822009289)"><g transform="rotate(3.13759350487002 85 95)"><rect stroke="black" fill="none" x="80" y="90" width="10" height="10" transform="rotate(0,85,95)"></rect></g></g>
<g transform="translate(1.2088283783065594 5.450536512960012)"><g transform="rotate(12.873781026034036 95 95)"><rect stroke="black" fill="none" x="90" y="90" width="10" height="10" transform="rotate(0,95,95)"></rect></g></g>
<g transform="translate(-0.8459607482818146 1.799654810931886)"><g transform="rotate(2.858418343372582 105 95)"><rect stroke="black" fill="none" x="100" y="90" width="10" height="10" transform="rotate(0,105,95)"></rect></g></g>
<g transform="translate(2.2592879110559747 0.7869324916238027)"><g transform="rotate(7.264615619370981 115 95)"><rect stroke="black" fill="none" x="110" y="90" width="10" height="10" transform="rotate(0,115,95)"></rect></g></g>
<g transform="translate(0.012005722013113562 4.136452534236064)"><g transform="rotate(13.535746033563747 5 105)"><rect stroke="black" fill="none" x="0" y="100" width="10" height="10" transform="rotate(0,5,105)"></rect></g></g>
<g transform="translate(3.1131828338669285 7.024691537573105)"><g transform="rotate(14.848917118508812 15 105)"><rect stroke="black" fill="none" x="10" y="100" width="10" height="10" transform="rotate(0,15,105)"></rect></g></g>
<g transform="translate(-0.4162788539815905 10.676435931088234)"><g transform="rotate(6.794284252054039 25 105)"><rect stroke="black" fill="none" x="20" y="100" width="10" height="10" transform="rotate(0,25,105)"></rect></g></g>
<g transform="translate(0.7203901046798906 6.2318161509501895)"><g transform="rotate(8.081573045407026 35 105)"><rect stroke="black" fill="none" x="30" y="100" width="10" height="10" transform="rotate(0,35,105)"></rect></g></g>
<g transform="translate(3.383751285818393 -3.3353658697019384)"><g transform="rotate(0.8738620553010168 45 105)"><rect stroke="black" fill="none" x="40" y="100" width="10" height="10" transform="rotate(0,45,105)"></rect></g></g>
<g transform="translate(-4.239479991112536 0.8195529757117921)"><g transform="rotate(8.132382076851028 55 105)"><rect stroke="black" fill="none" x="50" y="100" width="10" height="10" transform="rotate(0,55,105)"></rect></g></g>
<g transform="translate(-4.337433575749423 -3.5429927850477068)"><g transform="rotate(15.920411309337787 65 105)"><rect stroke="black" fill="none" x="60" y="100" width="10" height="10" transform="rotate(0,65,105)"></rect></g></g>
<g transform="translate(-4.313861943489228 4.747967196231803)"><g transform="rotate(17.670597092559294 75 105)"><rect stroke="black" fill="none" x="70" y="100" width="10" height="10" transform="rotate(0,75,105)"></rect></g></g>
<g transform="translate(-0.07097708965069671 -0.14724600028961277)"><g transform="rotate(5.90025272698254 85 105)"><rect stroke="black" fill="none" x="80" y="100" width="10" height="10" transform="rotate(0,85,105)"></rect></g></g>
<g transform="translate(-0.06630989093814499 9.305294332269035)"><g transform="rotate(4.647020418478213 95 105)"><rect stroke="black" fill="none" x="90" y="100" width="10" height="10" transform="rotate(0,95,105)"></rect></g></g>
<g transform="translate(-2.2941254427838182 12.405217903573577)"><g transform="rotate(2.2213959544180844 105 105)"><rect stroke="black" fill="none" x="100" y="100" width="10" height="10" transform="rotate(0,105,105)"></rect></g></g>
<g transform="translate(-2.0688263160333467 12.31344014605388)"><g transform="rotate(1.9001515295684241 115 105)"><rect stroke="black" fill="none" x="110" y="100" width="10" height="10" transform="rotate(0,115,105)"></rect></g></g>
<g transform="translate(3.0518538899547787 3.1850033134916877)"><g transform="rotate(12.328130062946556 5 115)"><rect stroke="black" fill="none" x="0" y="110" width="10" height="10" transform="rotate(0,5,115)"></rect></g></g>
<g transform="translate(2.028295523030093 -1.1678656402425402)"><g transform="rotate(10.883746275742707 15 115)"><rect stroke="black" fill="none" x="10" y="110" width="10" height="10" transform="rotate(0,15,115)"></rect></g></g>
<g transform="translate(-2.343220709850811 12.558211492893134)"><g transform="rotate(20.563846368967244 25 115)"><rect stroke="black" fill="none" x="20" y="110" width="10" height="10" transform="rotate(0,25,115)"></rect></g></g>
<g transform="translate(-1.4774900828728077 -2.458512683135183)"><g transform="rotate(16.326532426362856 35 115)"><rect stroke="black" fill="none" x="30" y="110" width="10" height="10" transform="rotate(0,35,115)"></rect></g></g>
<g transform="translate(-4.510536482824589 -2.929148263793567)"><g transform="rotate(17.704633702128053 45 115)"><rect stroke="black" fill="none" x="40" y="110" width="10" height="10" transform="rotate(0,45,115)"></rect></g></g>
<g transform="translate(-0.2707511200049115 11.741251235902782)"><g transform="rotate(17.19408178137197 55 115)"><rect stroke="black" fill="none" x="50" y="110" width="10" height="10" transform="rotate(0,55,115)"></rect></g></g>
<g transform="translate(-2.772894324494366 12.428823543397497)"><g transform="rotate(20.21143825391315 65 115)"><rect stroke="black" fill="none" x="60" y="110" width="10" height="10" transform="rotate(0,65,115)"></rect></g></g>
<g transform="translate(-4.05118426166401 5.21024435399924)"><g transform="rotate(7.63366393102348 75 115)"><rect stroke="black" fill="none" x="70" y="110" width="10" height="10" transform="rotate(0,75,115)"></rect></g></g>
<g transform="translate(-2.889736813223526 1.9779423414056847)"><g transform="rotate(14.569150976366487 85 115)"><rect stroke="black" fill="none" x="80" y="110" width="10" height="10" transform="rotate(0,85,115)"></rect></g></g>
<g transform="translate(-4.301400143176364 5.739219063469395)"><g transform="rotate(6.43430333768769 95 115)"><rect stroke="black" fill="none" x="90" y="110" width="10" height="10" transform="rotate(0,95,115)"></rect></g></g>
<g transform="translate(-4.292893414559192 14.34514021097411)"><g transform="rotate(8.884717343248894 105 115)"><rect stroke="black" fill="none" x="100" y="110" width="10" height="10" transform="rotate(0,105,115)"></rect></g></g>
<g transform="translate(-1.164453848447025 5.746006445385802)"><g transform="rotate(9.763550003009078 115 115)"><rect stroke="black" fill="none" x="110" y="110" width="10" height="10" transform="rotate(0,115,115)"></rect></g></g>
<g transform="translate(-1.0345319129427946 6.336123380727825)"><g transform="rotate(14.087417175295213 5 125)"><rect stroke="black" fill="none" x="0" y="120" width="10" height="10" transform="rotate(0,5,125)"></rect></g></g>
<g transform="translate(2.213491397105858 9.054166152697615)"><g transform="rotate(11.336786689827072 15 125)"><rect stroke="black" fill="none" x="10" y="120" width="10" height="10" transform="rotate(0,15,125)"></rect></g></g>
<g transform="translate(-3.098442336908377 10.275819345449152)"><g transform="rotate(19.208365365002205 25 125)"><rect stroke="black" fill="none" x="20" y="120" width="10" height="10" transform="rotate(0,25,125)"></rect></g></g>
<g transform="translate(-5.1446984537016025 -2.0411533834927926)"><g transform="rotate(21.120851130466573 35 125)"><rect stroke="black" fill="none" x="30" y="120" width="10" height="10" transform="rotate(0,35,125)"></rect></g></g>
<g transform="translate(-2.372268223923658 12.065379101870873)"><g transform="rotate(7.870273942045298 45 125)"><rect stroke="black" fill="none" x="40" y="120" width="10" height="10" transform="rotate(0,45,125)"></rect></g></g>
<g transform="translate(4.941833037779256 8.682318410397613)"><g transform="rotate(21.11950182388969 55 125)"><rect stroke="black" fill="none" x="50" y="120" width="10" height="10" transform="rotate(0,55,125)"></rect></g></g>
<g transform="translate(3.717143385812456 3.3235319946084374)"><g transform="rotate(16.341163893449654 65 125)"><rect stroke="black" fill="none" x="60" y="120" width="10" height="10" transform="rotate(0,65,125)"></rect></g></g>
<g transform="translate(2.5160872074623866 -4.960865893255305)"><g transform="rotate(12.412977377831583 75 125)"><rect stroke="black" fill="none" x="70" y="120" width="10" height="10" transform="rotate(0,75,125)"></rect></g></g>
<g transform="translate(-2.0503744184077246 3.0829020820420077)"><g transform="rotate(17.338215938081643 85 125)"><rect stroke="black" fill="none" x="80" y="120" width="10" height="10" transform="rotate(0,85,125)"></rect></g></g>
<g transform="translate(0.6481407099390619 12.50085663517162)"><g transform="rotate(3.468653469652059 95 125)"><rect stroke="black" fill="none" x="90" y="120" width="10" height="10" transform="rotate(0,95,125)"></rect></g></g>
<g transform="translate(0.045111148959771086 14.474689225524672)"><g transform="rotate(2.8679352158768108 105 125)"><rect stroke="black" fill="none" x="100" y="120" width="10" height="10" transform="rotate(0,105,125)"></rect></g></g>
<g transform="translate(-1.2635944536665642 -3.6022496727547084)"><g transform="rotate(2.3029219066327604 115 125)"><rect stroke="black" fill="none" x="110" y="120" width="10" height="10" transform="rotate(0,115,125)"></rect></g></g>
<g transform="translate(-4.34203101508978 4.5295985784025055)"><g transform="rotate(21.039718170127532 5 135)"><rect stroke="black" fill="none" x="0" y="130" width="10" height="10" transform="rotate(0,5,135)"></rect></g></g>
<g transform="translate(4.615653580333999 -0.0705786468038836)"><g transform="rotate(22.74619665794561 15 135)"><rect stroke="black" fill="none" x="10" y="130" width="10" height="10" transform="rotate(0,15,135)"></rect></g></g>
<g transform="translate(1.810322847395894 0.30232959886831257)"><g transform="rotate(14.364653929821646 25 135)"><rect stroke="black" fill="none" x="20" y="130" width="10" height="10" transform="rotate(0,25,135)"></rect></g></g>
<g transform="translate(0.46968530277097553 -4.511511948526567)"><g transform="rotate(5.742055122461266 35 135)"><rect stroke="black" fill="none" x="30" y="130" width="10" height="10" transform="rotate(0,35,135)"></rect></g></g>
<g transform="translate(2.699418898656085 13.791856557485165)"><g transform="rotate(13.26924172104299 45 135)"><rect stroke="black" fill="none" x="40" y="130" width="10" height="10" transform="rotate(0,45,135)"></rect></g></g>
<g transform="translate(0.1906874819472213 8.120561210838524)"><g transform="rotate(22.47763152275516 55 135)"><rect stroke="black" fill="none" x="50" y="130" width="10" height="10" transform="rotate(0,55,135)"></rect></g></g>
<g transform="translate(-2.178808287665601 -2.848107547465792)"><g transform="rotate(7.853502310523947 65 135)"><rect stroke="black" fill="none" x="60" y="130" width="10" height="10" transform="rotate(0,65,135)"></rect></g></g>
<g transform="translate(1.95308265985146 -2.638255053648001)"><g transform="rotate(3.597253600327102 75 135)"><rect stroke="black" fill="none" x="70" y="130" width="10" height="10" transform="rotate(0,75,135)"></rect></g></g>
<g transform="translate(-2.9099807564305555 -5.15195384432667)"><g transform="rotate(8.694533206002246 85 135)"><rect stroke="black" fill="none" x="80" y="130" width="10" height="10" transform="rotate(0,85,135)"></rect></g></g>
<g transform="translate(-1.628816604744265 -4.7993403001905035)"><g transform="rotate(8.455663278607119 95 135)"><rect stroke="black" fill="none" x="90" y="130" width="10" height="10" transform="rotate(0,95,135)"></rect></g></g>
<g transform="translate(-5.626372282631368 14.89663057480227)"><g transform="rotate(8.635553263358192 105 135)"><rect stroke="black" fill="none" x="100" y="130" width="10" height="10" transform="rotate(0,105,135)"></rect></g></g>
<g transform="translate(-4.326100157038139 0.3332211394139435)"><g transform="rotate(19.39284693032286 115 135)"><rect stroke="black" fill="none" x="110" y="130" width="10" height="10" transform="rotate(0,115,135)"></rect></g></g>
<g transform="translate(3.9591530848576078 13.00012526125274)"><g transform="rotate(14.823487705508839 5 145)"><rect stroke="black" fill="none" x="0" y="140" width="10" height="10" transform="rotate(0,5,145)"></rect></g></g>
<g transform="translate(5.7812701517539296 16.09776344095996)"><g transform="rotate(1.1248366989982455 15 145)"><rect stroke="black" fill="none" x="10" y="140" width="10" height="10" transform="rotate(0,15,145)"></rect></g></g>
<g transform="translate(4.744030085904505 -3.7034298039308533)"><g transform="rotate(23.455892291903425 25 145)"><rect stroke="black" fill="none" x="20" y="140" width="10" height="10" transform="rotate(0,25,145)"></rect></g></g>
<g transform="translate(-3.5928650581333437 0.47652074175654047)"><g transform="rotate(25.3090260095516 35 145)"><rect stroke="black" fill="none" x="30" y="140" width="10" height="10" transform="rotate(0,35,145)"></rect></g></g>
<g transform="translate(0.3507838751941197 6.545135823938038)"><g transform="rotate(4.058612246164258 45 145)"><rect stroke="black" fill="none" x="40" y="140" width="10" height="10" transform="rotate(0,45,145)"></rect></g></g>
<g transform="translate(5.454917769205766 0.7565045732917817)"><g transform="rotate(0.1854788914650441 55 145)"><rect stroke="black" fill="none" x="50" y="140" width="10" height="10" transform="rotate(0,55,145)"></rect></g></g>
<g transform="translate(4.854404563688863 7.218729581433246)"><g transform="rotate(17.35650326153548 65 145)"><rect stroke="black" fill="none" x="60" y="140" width="10" height="10" transform="rotate(0,65,145)"></rect></g></g>
<g transform="translate(3.464319870419013 15.449627659300157)"><g transform="rotate(18.93774321984719 75 145)"><rect stroke="black" fill="none" x="70" y="140" width="10" height="10" transform="rotate(0,75,145)"></rect></g></g>
<g transform="translate(5.869640757799999 10.454095616531882)"><g transform="rotate(18.313328353385 85 145)"><rect stroke="black" fill="none" x="80" y="140" width="10" height="10" transform="rotate(0,85,145)"></rect></g></g>
<g transform="translate(3.3842377866681694 -1.7849082244150454)"><g transform="rotate(13.41275663107694 95 145)"><rect stroke="black" fill="none" x="90" y="140" width="10" height="10" transform="rotate(0,95,145)"></rect></g></g>
<g transform="translate(-5.933796260294018 3.114749364980266)"><g transform="rotate(17.893887364021257 105 145)"><rect stroke="black" fill="none" x="100" y="140" width="10" height="10" transform="rotate(0,105,145)"></rect></g></g>
<g transform="translate(-4.088915465738745 -4.146877596391491)"><g transform="rotate(22.23839879573932 115 145)"><rect stroke="black" fill="none" x="110" y="140" width="10" height="10" transform="rotate(0,115,145)"></rect></g></g>
<g transform="translate(4.3680717403518425 11.903227502388487)"><g transform="rotate(24.344617873138283 5 155)"><rect stroke="black" fill="none" x="0" y="150" width="10" height="10" transform="rotate(0,5,155)"></rect></g></g>
<g transform="translate(-5.002768400839799 9.725686324797772)"><g transform="rotate(18.3104805829367 15 155)"><rect stroke="black" fill="none" x="10" y="150" width="10" height="10" transform="rotate(0,15,155)"></rect></g></g>
<g transform="translate(-4.260417275357397 1.8606450264149483)"><g transform="rotate(10.35114763952862 25 155)"><rect stroke="black" fill="none" x="20" y="150" width="10" height="10" transform="rotate(0,25,155)"></rect></g></g>
<g transform="translate(1.6965497353389942 12.426011804871164)"><g transform="rotate(9.420653531311771 35 155)"><rect stroke="black" fill="none" x="30" y="150" width="10" height="10" transform="rotate(0,35,155)"></rect></g></g>
<g transform="translate(-2.2435142752126778 17.88972876045564)"><g transform="rotate(17.78922664622376 45 155)"><rect stroke="black" fill="none" x="40" y="150" width="10" height="10" transform="rotate(0,45,155)"></rect></g></g>
<g transform="translate(5.02706487661545 13.24547806112155)"><g transform="rotate(13.57061122523611 55 155)"><rect stroke="black" fill="none" x="50" y="150" width="10" height="10" transform="rotate(0,55,155)"></rect></g></g>
<g transform="translate(-4.494719183629453 7.368397328874719)"><g transform="rotate(11.666102153468618 65 155)"><rect stroke="black" fill="none" x="60" y="150" width="10" height="10" transform="rotate(0,65,155)"></rect></g></g>
<g transform="translate(-1.5230989783420545 6.248098824380039)"><g transform="rotate(15.342499738826563 75 155)"><rect stroke="black" fill="none" x="70" y="150" width="10" height="10" transform="rotate(0,75,155)"></rect></g></g>
<g transform="translate(2.43277769472083 2.9751243662034206)"><g transform="rotate(17.131252676812053 85 155)"><rect stroke="black" fill="none" x="80" y="150" width="10" height="10" transform="rotate(0,85,155)"></rect></g></g>
<g transform="translate(-4.521657850517357 11.654750643581275)"><g transform="rotate(12.761870253256234 95 155)"><rect stroke="black" fill="none" x="90" y="150" width="10" height="10" transform="rotate(0,95,155)"></rect></g></g>
<g transform="translate(5.616043246079835 12.251688254758514)"><g transform="rotate(29.20903234735966 105 155)"><rect stroke="black" fill="none" x="100" y="150" width="10" height="10" transform="rotate(0,105,155)"></rect></g></g>
<g transform="translate(0.4553028145267177 -5.92341074850566)"><g transform="rotate(18.870632308317223 115 155)"><rect stroke="black" fill="none" x="110" y="150" width="10" height="10" transform="rotate(0,115,155)"></rect></g></g>
<g transform="translate(5.425128794268679 0.795369850533052)"><g transform="rotate(12.778316700268384 5 165)"><rect stroke="black" fill="none" x="0" y="160" width="10" height="10" transform="rotate(0,5,165)"></rect></g></g>
<g transform="translate(-1.4420005252775718 17.28126391616353)"><g transform="rotate(29.290492268529157 15 165)"><rect stroke="black" fill="none" x="10" y="160" width="10" height="10" transform="rotate(0,15,165)"></rect></g></g>
<g transform="translate(1.8499521551285811 -0.08774409386131854)"><g transform="rotate(22.163603428811165 25 165)"><rect stroke="black" fill="none" x="20" y="160" width="10" height="10" transform="rotate(0,25,165)"></rect></g></g>
<g transform="translate(5.144120898101632 14.68518882296246)"><g transform="rotate(10.400099105557148 35 165)"><rect stroke="black" fill="none" x="30" y="160" width="10" height="10" transform="rotate(0,35,165)"></rect></g></g>
<g transform="translate(-3.7044634684820603 5.206704192269178)"><g transform="rotate(31.059231122949278 45 165)"><rect stroke="black" fill="none" x="40" y="160" width="10" height="10" transform="rotate(0,45,165)"></rect></g></g>
<g transform="translate(3.335170073871727 18.21081346337839)"><g transform="rotate(25.381999502506815 55 165)"><rect stroke="black" fill="none" x="50" y="160" width="10" height="10" transform="rotate(0,55,165)"></rect></g></g>
<g transform="translate(-3.0108534642661224 1.2216241122471603)"><g transform="rotate(23.5428548765168 65 165)"><rect stroke="black" fill="none" x="60" y="160" width="10" height="10" transform="rotate(0,65,165)"></rect></g></g>
<g transform="translate(-2.6934225405746384 -4.95276067561805)"><g transform="rotate(21.12728812623151 75 165)"><rect stroke="black" fill="none" x="70" y="160" width="10" height="10" transform="rotate(0,75,165)"></rect></g></g>
<g transform="translate(0.9585847448141935 3.0022702191065838)"><g transform="rotate(20.2981910942669 85 165)"><rect stroke="black" fill="none" x="80" y="160" width="10" height="10" transform="rotate(0,85,165)"></rect></g></g>
<g transform="translate(-2.12134985920342 16.960564820601707)"><g transform="rotate(10.142246282686799 95 165)"><rect stroke="black" fill="none" x="90" y="160" width="10" height="10" transform="rotate(0,95,165)"></rect></g></g>
<g transform="translate(2.566097244119823 7.790177070845746)"><g transform="rotate(12.643618070989595 105 165)"><rect stroke="black" fill="none" x="100" y="160" width="10" height="10" transform="rotate(0,105,165)"></rect></g></g>
<g transform="translate(3.9663726196830345 11.063619941724383)"><g transform="rotate(29.716826686624483 115 165)"><rect stroke="black" fill="none" x="110" y="160" width="10" height="10" transform="rotate(0,115,165)"></rect></g></g>
<g transform="translate(-0.5740555203374997 4.266969000965922)"><g transform="rotate(23.016886567835126 5 175)"><rect stroke="black" fill="none" x="0" y="170" width="10" height="10" transform="rotate(0,5,175)"></rect></g></g>
<g transform="translate(-1.7892082231327047 -4.585208071323061)"><g transform="rotate(9.624744755215334 15 175)"><rect stroke="black" fill="none" x="10" y="170" width="10" height="10" transform="rotate(0,15,175)"></rect></g></g>
<g transform="translate(0.6286402022811224 1.4745920430919899)"><g transform="rotate(1.4041022933688694 25 175)"><rect stroke="black" fill="none" x="20" y="170" width="10" height="10" transform="rotate(0,25,175)"></rect></g></g>
<g transform="translate(5.673396689200446 12.430433240312006)"><g transform="rotate(17.401432381531787 35 175)"><rect stroke="black" fill="none" x="30" y="170" width="10" height="10" transform="rotate(0,35,175)"></rect></g></g>
<g transform="translate(0.09857091208527002 13.574906003632464)"><g transform="rotate(27.77768368122252 45 175)"><rect stroke="black" fill="none" x="40" y="170" width="10" height="10" transform="rotate(0,45,175)"></rect></g></g>
<g transform="translate(-1.734819572499128 10.766402618294372)"><g transform="rotate(15.053136122641758 55 175)"><rect stroke="black" fill="none" x="50" y="170" width="10" height="10" transform="rotate(0,55,175)"></rect></g></g>
<g transform="translate(-0.7017833070711417 -1.9876205903974045)"><g transform="rotate(5.067420968608247 65 175)"><rect stroke="black" fill="none" x="60" y="170" width="10" height="10" transform="rotate(0,65,175)"></rect></g></g>
<g transform="translate(-4.704134599942753 16.872233143263568)"><g transform="rotate(16.540544254093238 75 175)"><rect stroke="black" fill="none" x="70" y="170" width="10" height="10" transform="rotate(0,75,175)"></rect></g></g>
<g transform="translate(0.48674347736379264 -4.61465413244686)"><g transform="rotate(25.113970326283347 85 175)"><rect stroke="black" fill="none" x="80" y="170" width="10" height="10" transform="rotate(0,85,175)"></rect></g></g>
<g transform="translate(-7.012514268003305 -5.523893701236806)"><g transform="rotate(3.263065469179022 95 175)"><rect stroke="black" fill="none" x="90" y="170" width="10" height="10" transform="rotate(0,95,175)"></rect></g></g>
<g transform="translate(2.1119098378974197 2.1257462012486315)"><g transform="rotate(11.040122113268104 105 175)"><rect stroke="black" fill="none" x="100" y="170" width="10" height="10" transform="rotate(0,105,175)"></rect></g></g>
<g transform="translate(1.437944756881416 20.431131832468637)"><g transform="rotate(25.434615909902842 115 175)"><rect stroke="black" fill="none" x="110" y="170" width="10" height="10" transform="rotate(0,115,175)"></rect></g></g>
<g transform="translate(2.571822188530972 7.128458044891457)"><g transform="rotate(3.2020624195966336 5 185)"><rect stroke="black" fill="none" x="0" y="180" width="10" height="10" transform="rotate(0,5,185)"></rect></g></g>
<g transform="translate(-3.2932753016650933 -3.712391831888289)"><g transform="rotate(17.461605046405474 15 185)"><rect stroke="black" fill="none" x="10" y="180" width="10" height="10" transform="rotate(0,15,185)"></rect></g></g>
<g transform="translate(4.945586483773195 9.936642566375848)"><g transform="rotate(22.84786125892007 25 185)"><rect stroke="black" fill="none" x="20" y="180" width="10" height="10" transform="rotate(0,25,185)"></rect></g></g>
<g transform="translate(1.0026385000228268 16.555873594358975)"><g transform="rotate(14.710208320374951 35 185)"><rect stroke="black" fill="none" x="30" y="180" width="10" height="10" transform="rotate(0,35,185)"></rect></g></g>
<g transform="translate(1.202660817116695 6.426179832498305)"><g transform="rotate(8.934237176266787 45 185)"><rect stroke="black" fill="none" x="40" y="180" width="10" height="10" transform="rotate(0,45,185)"></rect></g></g>
<g transform="translate(-6.876640399771875 6.075654334863084)"><g transform="rotate(19.135252645738248 55 185)"><rect stroke="black" fill="none" x="50" y="180" width="10" height="10" transform="rotate(0,55,185)"></rect></g></g>
<g transform="translate(6.838750200181889 9.409744506412405)"><g transform="rotate(6.263270633194174 65 185)"><rect stroke="black" fill="none" x="60" y="180" width="10" height="10" transform="rotate(0,65,185)"></rect></g></g>
<g transform="translate(3.1286156768422595 5.256680526479635)"><g transform="rotate(5.688840495005551 75 185)"><rect stroke="black" fill="none" x="70" y="180" width="10" height="10" transform="rotate(0,75,185)"></rect></g></g>
<g transform="translate(2.721764403714043 14.42397095008296)"><g transform="rotate(26.848234870401193 85 185)"><rect stroke="black" fill="none" x="80" y="180" width="10" height="10" transform="rotate(0,85,185)"></rect></g></g>
<g transform="translate(-3.513203901545043 4.454469972660568)"><g transform="rotate(33.28319516519878 95 185)"><rect stroke="black" fill="none" x="90" y="180" width="10" height="10" transform="rotate(0,95,185)"></rect></g></g>
<g transform="translate(2.0599475681049215 17.581363047111314)"><g transform="rotate(9.139469688053742 105 185)"><rect stroke="black" fill="none" x="100" y="180" width="10" height="10" transform="rotate(0,105,185)"></rect></g></g>
<g transform="translate(-0.60942966882281 -0.7782992600454692)"><g transform="rotate(6.47740576860404 115 185)"><rect stroke="black" fill="none" x="110" y="180" width="10" height="10" transform="rotate(0,115,185)"></rect></g></g>
<g transform="translate(0.9191175934596565 12.606042493013597)"><g transform="rotate(16.899885877495223 5 195)"><rect stroke="black" fill="none" x="0" y="190" width="10" height="10" transform="rotate(0,5,195)"></rect></g></g>
<g transform="translate(-0.9266549998110936 -5.599755476809099)"><g transform="rotate(31.7262534270392 15 195)"><rect stroke="black" fill="none" x="10" y="190" width="10" height="10" transform="rotate(0,15,195)"></rect></g></g>
<g transform="translate(-0.5765400959743987 17.292013982618123)"><g transform="rotate(19.736006998310874 25 195)"><rect stroke="black" fill="none" x="20" y="190" width="10" height="10" transform="rotate(0,25,195)"></rect></g></g>
<g transform="translate(-2.5467567845727803 22.764283190641073)"><g transform="rotate(1.2603562556585413 35 195)"><rect stroke="black" fill="none" x="30" y="190" width="10" height="10" transform="rotate(0,35,195)"></rect></g></g>
<g transform="translate(3.885730861290014 11.899614010170811)"><g transform="rotate(14.604424182350362 45 195)"><rect stroke="black" fill="none" x="40" y="190" width="10" height="10" transform="rotate(0,45,195)"></rect></g></g>
<g transform="translate(-5.476298616851383 15.106933368960476)"><g transform="rotate(1.485252511590016 55 195)"><rect stroke="black" fill="none" x="50" y="190" width="10" height="10" transform="rotate(0,55,195)"></rect></g></g>
<g transform="translate(6.332817475199732 -1.688401018516771)"><g transform="rotate(29.988290119747557 65 195)"><rect stroke="black" fill="none" x="60" y="190" width="10" height="10" transform="rotate(0,65,195)"></rect></g></g>
<g transform="translate(-6.9293416506493255 21.404694729783014)"><g transform="rotate(1.2351637458096496 75 195)"><rect stroke="black" fill="none" x="70" y="190" width="10" height="10" transform="rotate(0,75,195)"></rect></g></g>
<g transform="translate(0.6508113361053418 14.157485811428963)"><g transform="rotate(16.77217793025255 85 195)"><rect stroke="black" fill="none" x="80" y="190" width="10" height="10" transform="rotate(0,85,195)"></rect></g></g>
<g transform="translate(-5.497554476324396 12.566507886277545)"><g transform="rotate(23.994137901506406 95 195)"><rect stroke="black" fill="none" x="90" y="190" width="10" height="10" transform="rotate(0,95,195)"></rect></g></g>
<g transform="translate(7.702956385108262 16.982856411067623)"><g transform="rotate(27.136711717940663 105 195)"><rect stroke="black" fill="none" x="100" y="190" width="10" height="10" transform="rotate(0,105,195)"></rect></g></g>
<g transform="translate(-5.807820733369526 9.237536902614337)"><g transform="rotate(35.90269556146222 115 195)"><rect stroke="black" fill="none" x="110" y="190" width="10" height="10" transform="rotate(0,115,195)"></rect></g></g>
<g transform="translate(-5.480081147868279 14.865882856874045)"><g transform="rotate(34.463419050227664 5 205)"><rect stroke="black" fill="none" x="0" y="200" width="10" height="10" transform="rotate(0,5,205)"></rect></g></g>
<g transform="translate(-1.1607155363651618 -6.140759242287399)"><g transform="rotate(12.44585938140435 15 205)"><rect stroke="black" fill="none" x="10" y="200" width="10" height="10" transform="rotate(0,15,205)"></rect></g></g>
<g transform="translate(4.596497894900196 15.351548381468909)"><g transform="rotate(3.260447925936746 25 205)"><rect stroke="black" fill="none" x="20" y="200" width="10" height="10" transform="rotate(0,25,205)"></rect></g></g>
<g transform="translate(-2.933476345354597 25.182227931621394)"><g transform="rotate(18.129879025210457 35 205)"><rect stroke="black" fill="none" x="30" y="200" width="10" height="10" transform="rotate(0,35,205)"></rect></g></g>
<g transform="translate(-0.6486421226399237 3.5955565108830783)"><g transform="rotate(38.62363181547639 45 205)"><rect stroke="black" fill="none" x="40" y="200" width="10" height="10" transform="rotate(0,45,205)"></rect></g></g>
<g transform="translate(-3.507211273053703 24.75250732221814)"><g transform="rotate(6.119214694103123 55 205)"><rect stroke="black" fill="none" x="50" y="200" width="10" height="10" transform="rotate(0,55,205)"></rect></g></g>
<g transform="translate(1.8750892590826798 6.393585173638554)"><g transform="rotate(7.7982922347137205 65 205)"><rect stroke="black" fill="none" x="60" y="200" width="10" height="10" transform="rotate(0,65,205)"></rect></g></g>
<g transform="translate(-5.487547508787764 17.305830342621192)"><g transform="rotate(25.255193073633176 75 205)"><rect stroke="black" fill="none" x="70" y="200" width="10" height="10" transform="rotate(0,75,205)"></rect></g></g>
<g transform="translate(5.2277947583162145 -8.460731085103335)"><g transform="rotate(15.217870688757323 85 205)"><rect stroke="black" fill="none" x="80" y="200" width="10" height="10" transform="rotate(0,85,205)"></rect></g></g>
<g transform="translate(-0.13567110532611437 -3.105935058864139)"><g transform="rotate(7.039206842367693 95 205)"><rect stroke="black" fill="none" x="90" y="200" width="10" height="10" transform="rotate(0,95,205)"></rect></g></g>
<g transform="translate(1.526551244526507 -6.855038068167369)"><g transform="rotate(3.312985840524117 105 205)"><rect stroke="black" fill="none" x="100" y="200" width="10" height="10" transform="rotate(0,105,205)"></rect></g></g>
<g transform="translate(-1.8645252008766295 18.950021061472466)"><g transform="rotate(17.017626002091305 115 205)"><rect stroke="black" fill="none" x="110" y="200" width="10" height="10" transform="rotate(0,115,205)"></rect></g></g>
<g transform="translate(3.180697008824371 10.293292912241714)"><g transform="rotate(33.70316190744105 5 215)"><rect stroke="black" fill="none" x="0" y="210" width="10" height="10" transform="rotate(0,5,215)"></rect></g></g>
<g transform="translate(2.046862471363516 4.9621708232190525)"><g transform="rotate(40.45884393748584 15 215)"><rect stroke="black" fill="none" x="10" y="210" width="10" height="10" transform="rotate(0,15,215)"></rect></g></g>
<g transform="translate(-2.5575168008539775 -7.491576215839952)"><g transform="rotate(22.717543532313616 25 215)"><rect stroke="black" fill="none" x="20" y="210" width="10" height="10" transform="rotate(0,25,215)"></rect></g></g>
<g transform="translate(1.808263237121901 26.515309857454717)"><g transform="rotate(24.682412542575058 35 215)"><rect stroke="black" fill="none" x="30" y="210" width="10" height="10" transform="rotate(0,35,215)"></rect></g></g>
<g transform="translate(1.1588278550096973 2.998621493862224)"><g transform="rotate(4.775204583234314 45 215)"><rect stroke="black" fill="none" x="40" y="210" width="10" height="10" transform="rotate(0,45,215)"></rect></g></g>
<g transform="translate(1.4219927399707988 2.6109931209343493)"><g transform="rotate(35.54177202502783 55 215)"><rect stroke="black" fill="none" x="50" y="210" width="10" height="10" transform="rotate(0,55,215)"></rect></g></g>
<g transform="translate(-3.151954462388839 8.627123531450554)"><g transform="rotate(3.083766774234213 65 215)"><rect stroke="black" fill="none" x="60" y="210" width="10" height="10" transform="rotate(0,65,215)"></rect></g></g>
<g transform="translate(-8.106475713700274 23.653226772321183)"><g transform="rotate(2.6539041524249636 75 215)"><rect stroke="black" fill="none" x="70" y="210" width="10" height="10" transform="rotate(0,75,215)"></rect></g></g>
<g transform="translate(2.8199733784531613 3.721330261057389)"><g transform="rotate(36.05753054687166 85 215)"><rect stroke="black" fill="none" x="80" y="210" width="10" height="10" transform="rotate(0,85,215)"></rect></g></g>
<g transform="translate(-6.4762382921920025 4.319693845082911)"><g transform="rotate(29.673673217440832 95 215)"><rect stroke="black" fill="none" x="90" y="210" width="10" height="10" transform="rotate(0,95,215)"></rect></g></g>
<g transform="translate(-6.1928440024164315 6.982669602678779)"><g transform="rotate(26.269867387270345 105 215)"><rect stroke="black" fill="none" x="100" y="210" width="10" height="10" transform="rotate(0,105,215)"></rect></g></g>
<g transform="translate(-8.216236571712306 -4.4844454492782715)"><g transform="rotate(30.66845046266475 115 215)"><rect stroke="black" fill="none" x="110" y="210" width="10" height="10" transform="rotate(0,115,215)"></rect></g></g>
<g transform="translate(-4.4260960471662125 24.745894742056752)"><g transform="rotate(2.612404004406518 5 225)"><rect stroke="black" fill="none" x="0" y="220" width="10" height="10" transform="rotate(0,5,225)"></rect></g></g>
<g transform="translate(2.916794266932742 16.23895529414693)"><g transform="rotate(42.97264200673223 15 225)"><rect stroke="black" fill="none" x="10" y="220" width="10" height="10" transform="rotate(0,15,225)"></rect></g></g>
<g transform="translate(6.24677353768719 2.627783297103493)"><g transform="rotate(2.242164040509893 25 225)"><rect stroke="black" fill="none" x="20" y="220" width="10" height="10" transform="rotate(0,25,225)"></rect></g></g>
<g transform="translate(-0.5051393886401492 -7.414637781385688)"><g transform="rotate(18.871755180908284 35 225)"><rect stroke="black" fill="none" x="30" y="220" width="10" height="10" transform="rotate(0,35,225)"></rect></g></g>
<g transform="translate(6.413168734716711 18.008215916262806)"><g transform="rotate(9.87555401533822 45 225)"><rect stroke="black" fill="none" x="40" y="220" width="10" height="10" transform="rotate(0,45,225)"></rect></g></g>
<g transform="translate(-0.7132209644391647 -6.9941313354910015)"><g transform="rotate(14.971054687942939 55 225)"><rect stroke="black" fill="none" x="50" y="220" width="10" height="10" transform="rotate(0,55,225)"></rect></g></g>
<g transform="translate(-1.198496810635751 7.264009017884504)"><g transform="rotate(41.56383601288796 65 225)"><rect stroke="black" fill="none" x="60" y="220" width="10" height="10" transform="rotate(0,65,225)"></rect></g></g>
<g transform="translate(4.7403320525414685 15.411348209317467)"><g transform="rotate(16.373431665703965 75 225)"><rect stroke="black" fill="none" x="70" y="220" width="10" height="10" transform="rotate(0,75,225)"></rect></g></g>
<g transform="translate(1.8351999771660363 9.949256248539147)"><g transform="rotate(11.88849033222696 85 225)"><rect stroke="black" fill="none" x="80" y="220" width="10" height="10" transform="rotate(0,85,225)"></rect></g></g>
<g transform="translate(5.207687253512601 -4.4859993829934)"><g transform="rotate(41.24827753188405 95 225)"><rect stroke="black" fill="none" x="90" y="220" width="10" height="10" transform="rotate(0,95,225)"></rect></g></g>
<g transform="translate(3.6183062022399515 4.842797329623581)"><g transform="rotate(30.90766853270634 105 225)"><rect stroke="black" fill="none" x="100" y="220" width="10" height="10" transform="rotate(0,105,225)"></rect></g></g>
<g transform="translate(3.5938123116909875 24.938294794068387)"><g transform="rotate(40.03067283627262 115 225)"><rect stroke="black" fill="none" x="110" y="220" width="10" height="10" transform="rotate(0,115,225)"></rect></g></g>
<g transform="translate(6.688155958334001 16.094503758649665)"><g transform="rotate(21.293616520225466 5 235)"><rect stroke="black" fill="none" x="0" y="230" width="10" height="10" transform="rotate(0,5,235)"></rect></g></g>
<g transform="translate(-2.8863537096297325 4.71091501576478)"><g transform="rotate(38.76097750452065 15 235)"><rect stroke="black" fill="none" x="10" y="230" width="10" height="10" transform="rotate(0,15,235)"></rect></g></g>
<g transform="translate(5.634206489946987 11.18544042498458)"><g transform="rotate(1.6733830534883327 25 235)"><rect stroke="black" fill="none" x="20" y="230" width="10" height="10" transform="rotate(0,25,235)"></rect></g></g>
<g transform="translate(-2.52998289021755 5.330322421969873)"><g transform="rotate(13.624242404640565 35 235)"><rect stroke="black" fill="none" x="30" y="230" width="10" height="10" transform="rotate(0,35,235)"></rect></g></g>
<g transform="translate(-6.958024064098119 29.762482190088264)"><g transform="rotate(9.40660609258504 45 235)"><rect stroke="black" fill="none" x="40" y="230" width="10" height="10" transform="rotate(0,45,235)"></rect></g></g>
<g transform="translate(7.560627195182754 16.280167936007764)"><g transform="rotate(21.736773982731233 55 235)"><rect stroke="black" fill="none" x="50" y="230" width="10" height="10" transform="rotate(0,55,235)"></rect></g></g>
<g transform="translate(5.180671733757292 27.67699545289264)"><g transform="rotate(26.383336575186675 65 235)"><rect stroke="black" fill="none" x="60" y="230" width="10" height="10" transform="rotate(0,65,235)"></rect></g></g>
<g transform="translate(-5.088862708704205 23.205252447349437)"><g transform="rotate(14.700246653287664 75 235)"><rect stroke="black" fill="none" x="70" y="230" width="10" height="10" transform="rotate(0,75,235)"></rect></g></g>
<g transform="translate(4.5363466493766715 20.975420898104737)"><g transform="rotate(14.517404368584732 85 235)"><rect stroke="black" fill="none" x="80" y="230" width="10" height="10" transform="rotate(0,85,235)"></rect></g></g>
<g transform="translate(1.1858542457242205 0.2696411625191075)"><g transform="rotate(3.3171906076014004 95 235)"><rect stroke="black" fill="none" x="90" y="230" width="10" height="10" transform="rotate(0,95,235)"></rect></g></g>
<g transform="translate(5.62662061790391 29.149366516289376)"><g transform="rotate(29.450792317263886 105 235)"><rect stroke="black" fill="none" x="100" y="230" width="10" height="10" transform="rotate(0,105,235)"></rect></g></g>
<g transform="translate(2.302933470148492 5.699333057317656)"><g transform="rotate(30.876395154126133 115 235)"><rect stroke="black" fill="none" x="110" y="230" width="10" height="10" transform="rotate(0,115,235)"></rect></g></g>
</svg>
